<?xml version="1.0" encoding="utf-8"?>
<!-- Generator: Adobe Illustrator 23.0.1, SVG Export Plug-In . SVG Version: 6.00 Build 0)  -->
<svg version="1.1" id="Laag_1" xmlns="http://www.w3.org/2000/svg" xmlns:xlink="http://www.w3.org/1999/xlink" x="0px" y="0px"
	 viewBox="0 0 120 120" style="enable-background:new 0 0 120 120;" xml:space="preserve">
<style type="text/css">
	.st0{fill:none;stroke:#377DFF;stroke-width:3;stroke-linecap:round;stroke-linejoin:round;stroke-miterlimit:10;}
	.st1{fill:none;stroke:#BDC5D1;stroke-width:3;stroke-linecap:round;stroke-linejoin:round;stroke-miterlimit:10;}
	.st2{opacity:0.5;}
	.st3{fill:#BDC5D1;}
	.st4{fill:#DD4D7E;}
	.st5{fill:#FFFFFF;}
	
		.st6{opacity:0.5;fill:none;stroke:#BDC5D1;stroke-width:3;stroke-linecap:round;stroke-linejoin:round;stroke-miterlimit:10;enable-background:new    ;}
	.st7{fill:none;stroke:#DD4D7E;stroke-width:3;stroke-linecap:round;stroke-linejoin:round;stroke-miterlimit:10;}
</style>
<path class="st0" d="M99.1,113.3"/>
<path class="st1" d="M15.1,75.6V11l4.4-4.3l4.3,4.3l4.3-4.3l4.3,4.3l4.3-4.3L41,11l4.3-4.3l4.3,4.3l4.3-4.3l4.3,4.3l4.3-4.3l4.3,4.3
	l4.3-4.3l4.3,4.3l4.3-4.3L84,11l5-4.3l4.4,4.3v96.5c0,3.2,2.6,5.8,5.8,5.8l0,0c3.2,0,5.8-2.6,5.8-5.8V13.2h-5.8v93.1"/>
<line class="st1" x1="99.1" y1="113.3" x2="26.1" y2="113.3"/>
<g class="st2">
	<path class="st3" d="M78.1,44.5H39.2c-4.1,0-7.3-3.3-7.3-7.3l0,0c0-4.1,3.3-7.3,7.3-7.3h38.9c4.1,0,7.3,3.3,7.3,7.3l0,0
		C85.5,41.2,82.2,44.5,78.1,44.5z"/>
</g>
<g>
	<path class="st4" d="M73.1,38H34.2c-4.1,0-7.3-3.3-7.3-7.3l0,0c0-4.1,3.3-7.3,7.3-7.3h38.9c4.1,0,7.3,3.3,7.3,7.3l0,0
		C80.5,34.7,77.2,38,73.1,38z"/>
</g>
<g>
	<path class="st5" d="M65.4,32.3H41.9c-0.9,0-1.6-0.7-1.6-1.6l0,0c0-0.9,0.7-1.6,1.6-1.6h23.5c0.9,0,1.6,0.7,1.6,1.6l0,0
		C67,31.5,66.3,32.3,65.4,32.3z"/>
</g>
<g class="st2">
	<line class="st1" x1="3.8" y1="86" x2="33.1" y2="86"/>
	<line class="st1" x1="3.8" y1="93.5" x2="33.1" y2="93.5"/>
	<line class="st1" x1="3.8" y1="101.1" x2="18.3" y2="101.1"/>
	<line class="st1" x1="27.3" y1="101.1" x2="33.1" y2="101.1"/>
</g>
<line class="st6" x1="54.4" y1="90.6" x2="54.4" y2="102.8"/>
<line class="st6" x1="62.3" y1="87.1" x2="62.3" y2="102.8"/>
<line class="st6" x1="70.3" y1="89.7" x2="70.3" y2="102.8"/>
<line class="st6" x1="78.3" y1="81.8" x2="78.3" y2="102.8"/>
<polyline class="st7" points="50.6,86 64.2,75.6 69,81.3 80.9,71.2 "/>
</svg>
