<?xml version="1.0" encoding="utf-8"?>
<!-- Generator: Adobe Illustrator 23.0.1, SVG Export Plug-In . SVG Version: 6.00 Build 0)  -->
<svg version="1.1" id="Laag_1" xmlns="http://www.w3.org/2000/svg" xmlns:xlink="http://www.w3.org/1999/xlink" x="0px" y="0px"
	 viewBox="0 0 552 409.4" style="enable-background:new 0 0 552 409.4;" xml:space="preserve">
<style type="text/css">
	.st0{fill:url(#SVGID_1_);}
	.st1{fill:url(#SVGID_2_);}
	.st2{fill:url(#SVGID_3_);}
	.st3{fill:url(#SVGID_4_);}
	.st4{fill:url(#SVGID_5_);}
	.st5{fill:url(#SVGID_6_);}
	.st6{fill:url(#SVGID_7_);}
	.st7{fill:url(#SVGID_8_);}
	.st8{fill:url(#SVGID_9_);}
	.st9{fill:url(#SVGID_10_);}
	.st10{fill:url(#SVGID_11_);}
	.st11{fill:url(#SVGID_12_);}
	.st12{fill:url(#SVGID_13_);}
	.st13{fill:url(#SVGID_14_);}
	.st14{fill:url(#SVGID_15_);}
	.st15{fill:url(#SVGID_16_);}
	.st16{fill:#FFFFFF;}
</style>
<linearGradient id="SVGID_1_" gradientUnits="userSpaceOnUse" x1="133.1625" y1="-96.7783" x2="419.0633" y2="-96.7783" gradientTransform="matrix(1 0 0 1 0 297.6783)">
	<stop  offset="0" style="stop-color:#BFA330"/>
	<stop  offset="0.2811" style="stop-color:#BFA330;stop-opacity:0.7189"/>
	<stop  offset="1" style="stop-color:#BFA330;stop-opacity:0"/>
</linearGradient>
<path class="st0" d="M378.6,400.1c-14.8,0-36.6-5.5-61.3-15.4c-26.7-10.7-53.8-25.4-78.5-42.4c-36.2-25-97.9-76.9-104.2-144
	c-6.2-65.5,7.8-120.6,39.2-155.2c12.1-13.4,26.9-23.6,43.7-30.6C235,5.3,255.1,1.6,277.1,1.6c3,0,6.1,0.1,9.2,0.2
	c23.2,1,43,6.5,58.9,16.2c14.5,8.9,25.5,21.1,32.6,36.4c17.3,37.3,8.3,89-22.3,128.6c-18.9,24.4-26.6,47.3-23,68.1
	c3.7,21.3,19,40.2,46.8,57.8c28.1,17.8,44.6,47.4,38.5,68.9c-4.2,14.4-18,22.4-38.9,22.4L378.6,400.1z M277,3.1
	c-43,0-77.3,13.8-102.1,41c-31.2,34.3-45,89-38.8,154c6.3,66.4,67.6,117.9,103.6,142.7c24.7,17,51.7,31.6,78.2,42.3
	c24.5,9.8,46.1,15.3,60.7,15.3h0.2c20.2-0.1,33.5-7.7,37.4-21.3c2.8-9.8,0.6-21.9-6-34.2c-6.9-12.6-18.2-24.4-31.8-33
	c-28.2-17.9-43.7-37.1-47.5-58.8c-3.7-21.2,4.1-44.5,23.3-69.3c30.3-39.2,39.2-90.2,22.1-127c-6.9-15-17.7-27-32-35.7
	c-15.7-9.6-35.2-15-58.1-16C283,3.2,280,3.1,277,3.1z"/>
<linearGradient id="SVGID_2_" gradientUnits="userSpaceOnUse" x1="201.8502" y1="-14.628" x2="287.0998" y2="-99.8787" gradientTransform="matrix(1 0 0 1 0 297.6783)">
	<stop  offset="0" style="stop-color:#5B8BF5;stop-opacity:0"/>
	<stop  offset="1" style="stop-color:#00D0FD"/>
</linearGradient>
<path class="st1" d="M276.2,186.9v67.8L212.8,294v-67.9L276.2,186.9z"/>
<linearGradient id="SVGID_3_" gradientUnits="userSpaceOnUse" x1="181.1755" y1="-79.1033" x2="244.5245" y2="-142.4533" gradientTransform="matrix(1 0 0 1 0 297.6783)">
	<stop  offset="0" style="stop-color:#5B8BF5;stop-opacity:0"/>
	<stop  offset="1" style="stop-color:#00D0FD"/>
</linearGradient>
<path class="st2" d="M149.5,186.9l63.3-39.2l63.4,39.2l-63.4,39.2L149.5,186.9z"/>
<linearGradient id="SVGID_4_" gradientUnits="userSpaceOnUse" x1="158.1503" y1="-34.2282" x2="204.1497" y2="-80.2285" gradientTransform="matrix(1 0 0 1 0 297.6783)">
	<stop  offset="0" style="stop-color:#5B8BF5;stop-opacity:0"/>
	<stop  offset="1" style="stop-color:#00D0FD"/>
</linearGradient>
<path class="st3" d="M149.5,186.9l63.3,39.2V294l-63.3-39.2V186.9z"/>
<linearGradient id="SVGID_5_" gradientUnits="userSpaceOnUse" x1="265.2748" y1="-121.8037" x2="350.4752" y2="-207.003" gradientTransform="matrix(1 0 0 1 0 297.6783)">
	<stop  offset="0" style="stop-color:#D500E6;stop-opacity:0"/>
	<stop  offset="1" style="stop-color:#5B8BF5"/>
</linearGradient>
<path class="st4" d="M339.5,79.7v67.9l-63.3,39.2V119L339.5,79.7z"/>
<linearGradient id="SVGID_6_" gradientUnits="userSpaceOnUse" x1="244.4745" y1="-186.3033" x2="307.8255" y2="-249.6533" gradientTransform="matrix(1 0 0 1 0 297.6783)">
	<stop  offset="0" style="stop-color:#D500E6;stop-opacity:0"/>
	<stop  offset="1" style="stop-color:#5B8BF5"/>
</linearGradient>
<path class="st5" d="M212.8,79.7l63.4-39.2l63.3,39.2L276.2,119L212.8,79.7z"/>
<linearGradient id="SVGID_7_" gradientUnits="userSpaceOnUse" x1="221.475" y1="-141.4033" x2="267.525" y2="-187.4533" gradientTransform="matrix(1 0 0 1 0 297.6783)">
	<stop  offset="0" style="stop-color:#D500E6;stop-opacity:0"/>
	<stop  offset="1" style="stop-color:#5B8BF5"/>
</linearGradient>
<path class="st6" d="M212.8,79.7l63.4,39.2v67.9l-63.4-39.2L212.8,79.7L212.8,79.7z"/>
<linearGradient id="SVGID_8_" gradientUnits="userSpaceOnUse" x1="265.2498" y1="92.4714" x2="350.4502" y2="7.272" gradientTransform="matrix(1 0 0 1 0 297.6783)">
	<stop  offset="0" style="stop-color:#FF3815;stop-opacity:0"/>
	<stop  offset="1" style="stop-color:#FF3815"/>
</linearGradient>
<path class="st7" d="M339.5,294v67.9l-63.3,39.2v-67.9L339.5,294z"/>
<linearGradient id="SVGID_9_" gradientUnits="userSpaceOnUse" x1="244.4745" y1="27.9967" x2="307.8255" y2="-35.3533" gradientTransform="matrix(1 0 0 1 0 297.6783)">
	<stop  offset="0" style="stop-color:#FF3815;stop-opacity:0"/>
	<stop  offset="1" style="stop-color:#FF3815"/>
</linearGradient>
<path class="st8" d="M212.8,294l63.4-39.2l63.3,39.2l-63.3,39.2L212.8,294z"/>
<linearGradient id="SVGID_10_" gradientUnits="userSpaceOnUse" x1="221.4747" y1="72.8965" x2="267.5254" y2="26.8468" gradientTransform="matrix(1 0 0 1 0 297.6783)">
	<stop  offset="0" style="stop-color:#FF3815;stop-opacity:0"/>
	<stop  offset="1" style="stop-color:#FF3815"/>
</linearGradient>
<path class="st9" d="M212.8,294l63.4,39.2v67.9l-63.4-39.2L212.8,294L212.8,294z"/>
<linearGradient id="SVGID_11_" gradientUnits="userSpaceOnUse" x1="328.5502" y1="-14.628" x2="413.7998" y2="-99.8787" gradientTransform="matrix(1 0 0 1 0 297.6783)">
	<stop  offset="0" style="stop-color:#FF3815;stop-opacity:0"/>
	<stop  offset="1" style="stop-color:#D500E6"/>
</linearGradient>
<path class="st10" d="M402.9,186.9v67.8L339.5,294v-67.9L402.9,186.9z"/>
<linearGradient id="SVGID_12_" gradientUnits="userSpaceOnUse" x1="307.8751" y1="-79.1033" x2="371.2249" y2="-142.4533" gradientTransform="matrix(1 0 0 1 0 297.6783)">
	<stop  offset="0" style="stop-color:#FF3815;stop-opacity:0"/>
	<stop  offset="1" style="stop-color:#D500E6"/>
</linearGradient>
<path class="st11" d="M276.2,186.9l63.3-39.2l63.4,39.2l-63.4,39.2L276.2,186.9z"/>
<linearGradient id="SVGID_13_" gradientUnits="userSpaceOnUse" x1="284.85" y1="-34.2283" x2="330.85" y2="-80.2283" gradientTransform="matrix(1 0 0 1 0 297.6783)">
	<stop  offset="0" style="stop-color:#FF3815;stop-opacity:0"/>
	<stop  offset="1" style="stop-color:#D500E6"/>
</linearGradient>
<path class="st12" d="M276.2,186.9l63.3,39.2V294l-63.3-39.2V186.9z"/>
<radialGradient id="SVGID_14_" cx="397.0353" cy="-26.4945" r="0.9992" gradientTransform="matrix(31.625 0 0 31.625 -12280.042 1094.3894)" gradientUnits="userSpaceOnUse">
	<stop  offset="0" style="stop-color:#FFFFFF"/>
	<stop  offset="1" style="stop-color:#BFA330;stop-opacity:0"/>
</radialGradient>
<path class="st13" d="M276.2,288.1c17.5,0,31.6-14.2,31.6-31.6s-14.2-31.6-31.6-31.6s-31.6,14.2-31.6,31.6S258.8,288.1,276.2,288.1z
	"/>
<linearGradient id="SVGID_15_" gradientUnits="userSpaceOnUse" x1="218.6" y1="-126.9783" x2="218.6" y2="-172.9783" gradientTransform="matrix(1 0 0 1 0 297.6783)">
	<stop  offset="0" style="stop-color:#FFFFFF"/>
	<stop  offset="1" style="stop-color:#000000;stop-opacity:0.4"/>
</linearGradient>
<path class="st14" d="M218.6,170.7c9.5,0,17.3-10.3,17.3-23s-7.7-23-17.3-23c-9.5,0-17.3,10.3-17.3,23S209,170.7,218.6,170.7z"/>
<linearGradient id="SVGID_16_" gradientUnits="userSpaceOnUse" x1="212.8" y1="-172.9783" x2="212.8" y2="-126.9783" gradientTransform="matrix(1 0 0 1 0 297.6783)">
	<stop  offset="0" style="stop-color:#FFFFFF"/>
	<stop  offset="1" style="stop-color:#000000;stop-opacity:0.4"/>
</linearGradient>
<path class="st15" d="M212.8,170.7c9.5,0,17.3-10.3,17.3-23s-7.7-23-17.3-23c-9.5,0-17.3,10.3-17.3,23
	C195.6,160.4,203.3,170.7,212.8,170.7z"/>
<path class="st16" d="M217.1,138.5v-4.6h-6.9h-3.4v4.6h3.4h3.5v4.6h3.4v9.2h-3.4v4.6h-3.5v-13.8h-3.4v13.8v4.6h10.4v-4.6h3.4v-4.6
	v-13.8H217.1z"/>
</svg>
