<?xml version="1.0" encoding="utf-8"?>
<!-- Generator: Adobe Illustrator 23.0.1, SVG Export Plug-In . SVG Version: 6.00 Build 0)  -->
<svg version="1.1" id="Laag_1" xmlns="http://www.w3.org/2000/svg" xmlns:xlink="http://www.w3.org/1999/xlink" x="0px" y="0px"
	 viewBox="0 0 128 128" style="enable-background:new 0 0 128 128;" xml:space="preserve">
<style type="text/css">
	.st0{fill:url(#SVGID_1_);}
	.st1{fill:url(#SVGID_2_);}
	.st2{fill:url(#SVGID_3_);}
	.st3{fill:url(#SVGID_4_);}
	.st4{fill:url(#SVGID_5_);}
</style>
<linearGradient id="SVGID_1_" gradientUnits="userSpaceOnUse" x1="66.65" y1="47.7323" x2="66.65" y2="79.7323" gradientTransform="matrix(1 0 0 -1 0 127.7323)">
	<stop  offset="0" style="stop-color:#FFFFFF"/>
	<stop  offset="1" style="stop-color:#BFA330;stop-opacity:0"/>
</linearGradient>
<path class="st0" d="M66.7,80c4.4,0,8-7.2,8-16s-3.6-16-8-16s-8,7.2-8,16S62.2,80,66.7,80z"/>
<linearGradient id="SVGID_2_" gradientUnits="userSpaceOnUse" x1="62.65" y1="79.7323" x2="62.65" y2="47.7323" gradientTransform="matrix(1 0 0 -1 0 127.7323)">
	<stop  offset="0" style="stop-color:#FFFFFF"/>
	<stop  offset="1" style="stop-color:#BFA330;stop-opacity:0"/>
</linearGradient>
<path class="st1" d="M62.7,80c4.4,0,8-7.2,8-16s-3.6-16-8-16s-8,7.2-8,16S58.2,80,62.7,80z"/>
<linearGradient id="SVGID_3_" gradientUnits="userSpaceOnUse" x1="57.3" y1="21.8323" x2="114.7" y2="79.2323" gradientTransform="matrix(1 0 0 -1 0 127.7323)">
	<stop  offset="0" style="stop-color:#5B8BF5;stop-opacity:0"/>
	<stop  offset="1" style="stop-color:#00D0FD"/>
</linearGradient>
<path class="st2" d="M107.3,41.2v45.7l-42.7,26.4V67.6L107.3,41.2z"/>
<linearGradient id="SVGID_4_" gradientUnits="userSpaceOnUse" x1="43.3375" y1="65.2448" x2="86.0125" y2="107.9198" gradientTransform="matrix(1 0 0 -1 0 127.7323)">
	<stop  offset="0" style="stop-color:#5B8BF5;stop-opacity:0"/>
	<stop  offset="1" style="stop-color:#00D0FD"/>
</linearGradient>
<path class="st3" d="M22,41.2l42.7-26.4l42.7,26.4L64.7,67.6L22,41.2z"/>
<linearGradient id="SVGID_5_" gradientUnits="userSpaceOnUse" x1="27.8375" y1="35.0448" x2="58.8125" y2="66.0198" gradientTransform="matrix(1 0 0 -1 0 127.7323)">
	<stop  offset="0" style="stop-color:#5B8BF5;stop-opacity:0"/>
	<stop  offset="1" style="stop-color:#00D0FD"/>
</linearGradient>
<path class="st4" d="M22,41.2l42.7,26.4v45.7L22,86.8V41.2z"/>
</svg>
