<?xml version="1.0" encoding="utf-8"?>
<!-- Generator: Adobe Illustrator 23.0.1, SVG Export Plug-In . SVG Version: 6.00 Build 0)  -->
<svg version="1.1" id="Laag_1" xmlns="http://www.w3.org/2000/svg" xmlns:xlink="http://www.w3.org/1999/xlink" x="0px" y="0px"
	 viewBox="0 0 427.5 358.9" style="enable-background:new 0 0 427.5 358.9;" xml:space="preserve">
<style type="text/css">
	.st0{fill:url(#SVGID_1_);}
	.st1{fill:url(#SVGID_2_);}
	.st2{fill:url(#SVGID_3_);}
	.st3{fill:url(#SVGID_4_);}
	.st4{fill:url(#SVGID_5_);}
	.st5{fill:url(#SVGID_6_);}
	.st6{fill:url(#SVGID_7_);}
	.st7{fill:url(#SVGID_8_);}
	.st8{fill:url(#SVGID_9_);}
	.st9{fill:url(#SVGID_10_);}
	.st10{fill:url(#SVGID_11_);}
	.st11{fill:url(#SVGID_12_);}
	.st12{fill:url(#SVGID_13_);}
	.st13{fill:url(#SVGID_14_);}
	.st14{fill:url(#SVGID_15_);}
	.st15{fill:url(#SVGID_16_);}
	.st16{fill:url(#SVGID_17_);}
	.st17{fill:url(#SVGID_18_);}
	.st18{fill:url(#SVGID_19_);}
	.st19{fill:url(#SVGID_20_);}
	.st20{opacity:0.8;enable-background:new    ;}
	.st21{opacity:0.6;enable-background:new    ;}
	.st22{opacity:0.45;enable-background:new    ;}
	.st23{opacity:0.3;enable-background:new    ;}
	.st24{fill:url(#SVGID_21_);}
</style>
<linearGradient id="SVGID_1_" gradientUnits="userSpaceOnUse" x1="2.3" y1="-55.6724" x2="417.6668" y2="-55.6724" gradientTransform="matrix(1 0 0 1 0 214.4783)">
	<stop  offset="0" style="stop-color:#BFA330"/>
	<stop  offset="1" style="stop-color:#BFA330;stop-opacity:0"/>
</linearGradient>
<path class="st0" d="M416.9,269.2c-0.4,0-0.7-0.4-0.7-0.8c0.4-4.8-0.9-8.8-3.7-11.9c-6.6-7.1-20.5-8.2-34.4-8.3
	c-28.8-0.1-71.9-2.2-113.4-17.5c-47.5-17.5-81.6-48.6-101.4-92.4C142,91.1,113.9,60.5,84.2,52c-18.3-5.2-36.5-1.9-54.1,9.9
	C14.5,72.5,4.5,95.7,3.7,122.7c0,0.4-0.3,0.7-0.7,0.7s-0.7-0.4-0.7-0.7c0.8-27.8,10.9-50.9,27-61.7c17.9-12.1,36.4-15.5,55.2-10.1
	c30.2,8.6,58.6,39.5,80.1,87c19.6,43.5,53.5,74.4,100.6,91.7c41.2,15.2,84.2,17.2,112.9,17.3c14.3,0.1,28.5,1.2,35.4,8.8
	c3.1,3.3,4.5,7.7,4.1,12.9C417.7,268.9,417.3,269.2,416.9,269.2z"/>
<linearGradient id="SVGID_2_" gradientUnits="userSpaceOnUse" x1="130.9502" y1="92.772" x2="219.8498" y2="3.8714" gradientTransform="matrix(1 0 0 1 0 214.4783)">
	<stop  offset="0" style="stop-color:#5B8BF5;stop-opacity:0"/>
	<stop  offset="1" style="stop-color:#00D0FD"/>
</linearGradient>
<path class="st1" d="M209.9,208.4v69l-69,39.8v-69L209.9,208.4z"/>
<linearGradient id="SVGID_3_" gradientUnits="userSpaceOnUse" x1="106.4" y1="28.4217" x2="175.4" y2="-40.5783" gradientTransform="matrix(1 0 0 1 0 214.4783)">
	<stop  offset="0" style="stop-color:#5B8BF5;stop-opacity:0"/>
	<stop  offset="1" style="stop-color:#00D0FD"/>
</linearGradient>
<path class="st2" d="M71.9,208.4l69-39.9l69,39.9l-69,39.8L71.9,208.4z"/>
<linearGradient id="SVGID_4_" gradientUnits="userSpaceOnUse" x1="81.8497" y1="72.8716" x2="130.9503" y2="23.7718" gradientTransform="matrix(1 0 0 1 0 214.4783)">
	<stop  offset="0" style="stop-color:#5B8BF5;stop-opacity:0"/>
	<stop  offset="1" style="stop-color:#00D0FD"/>
</linearGradient>
<path class="st3" d="M71.9,208.4l69,39.8v69l-69-39.8C71.9,277.4,71.9,208.4,71.9,208.4z"/>
<linearGradient id="SVGID_5_" gradientUnits="userSpaceOnUse" x1="148.2001" y1="80.8221" x2="340.5999" y2="-111.5787" gradientTransform="matrix(1 0 0 1 0 214.4783)">
	<stop  offset="0" style="stop-color:#FF3815;stop-opacity:0"/>
	<stop  offset="1" style="stop-color:#D500E6"/>
</linearGradient>
<path class="st4" d="M278.9,41.2v276l-69,39.8V81L278.9,41.2z"/>
<linearGradient id="SVGID_6_" gradientUnits="userSpaceOnUse" x1="175.4" y1="-138.7783" x2="244.4" y2="-207.7783" gradientTransform="matrix(1 0 0 1 0 214.4783)">
	<stop  offset="0" style="stop-color:#FF3815;stop-opacity:0"/>
	<stop  offset="1" style="stop-color:#D500E6"/>
</linearGradient>
<path class="st5" d="M140.9,41.2l69-39.8l69,39.8l-69,39.8L140.9,41.2z"/>
<linearGradient id="SVGID_7_" gradientUnits="userSpaceOnUse" x1="99.0999" y1="60.9213" x2="251.7001" y2="-91.6779" gradientTransform="matrix(1 0 0 1 0 214.4783)">
	<stop  offset="0" style="stop-color:#FF3815;stop-opacity:0"/>
	<stop  offset="1" style="stop-color:#D500E6"/>
</linearGradient>
<path class="st6" d="M140.9,41.2l69,39.8v276l-69-39.8V41.2z"/>
<linearGradient id="SVGID_8_" gradientUnits="userSpaceOnUse" x1="237.0999" y1="-47.8786" x2="113.7001" y2="75.522" gradientTransform="matrix(1 0 0 1 0 214.4783)">
	<stop  offset="0" style="stop-color:#D500E6;stop-opacity:0"/>
	<stop  offset="1" style="stop-color:#5B8BF5"/>
</linearGradient>
<path class="st7" d="M140.9,317.2v-138l69-39.8v138L140.9,317.2z"/>
<linearGradient id="SVGID_9_" gradientUnits="userSpaceOnUse" x1="244.4" y1="68.2217" x2="175.4" y2="137.2217" gradientTransform="matrix(1 0 0 1 0 214.4783)">
	<stop  offset="0" style="stop-color:#D500E6;stop-opacity:0"/>
	<stop  offset="1" style="stop-color:#5B8BF5"/>
</linearGradient>
<path class="st8" d="M278.9,317.2l-69,39.8l-69-39.8l69-39.8L278.9,317.2z"/>
<linearGradient id="SVGID_10_" gradientUnits="userSpaceOnUse" x1="286.2002" y1="-27.978" x2="202.5998" y2="55.6214" gradientTransform="matrix(1 0 0 1 0 214.4783)">
	<stop  offset="0" style="stop-color:#D500E6;stop-opacity:0"/>
	<stop  offset="1" style="stop-color:#5B8BF5"/>
</linearGradient>
<path class="st9" d="M278.9,317.2l-69-39.8v-138l69,39.8V317.2z"/>
<linearGradient id="SVGID_11_" gradientUnits="userSpaceOnUse" x1="212.3" y1="85.1217" x2="212.3" y2="39.1217" gradientTransform="matrix(1 0 0 1 0 214.4783)">
	<stop  offset="0" style="stop-color:#41B782"/>
	<stop  offset="1" style="stop-color:#FFFFFF;stop-opacity:0.2"/>
</linearGradient>
<path class="st10" d="M212.3,299.6c9.5,0,17.3-10.3,17.3-23s-7.7-23-17.3-23c-9.5,0-17.3,10.3-17.3,23
	C195.1,289.3,202.8,299.6,212.3,299.6z"/>
<linearGradient id="SVGID_12_" gradientUnits="userSpaceOnUse" x1="196.6" y1="63.8217" x2="222.2951" y2="63.8217" gradientTransform="matrix(1 0 0 1 0 214.4783)">
	<stop  offset="0" style="stop-color:#35495E"/>
	<stop  offset="1" style="stop-color:#35495E;stop-opacity:0.4"/>
</linearGradient>
<path class="st11" d="M219.1,266.1h-19.3c-1.8,0-3.2,1.4-3.2,3.2v14.8c0,1.8,1.4,3.2,3.2,3.2h6.3l3.3,3.2v-3.2h9.6
	c1.8,0,3.2-1.4,3.2-3.2v-14.8C222.3,267.5,220.9,266.1,219.1,266.1z"/>
<linearGradient id="SVGID_13_" gradientUnits="userSpaceOnUse" x1="201.7319" y1="62.1717" x2="217.2979" y2="62.1717" gradientTransform="matrix(1 0 0 1 0 214.4783)">
	<stop  offset="0" style="stop-color:#FFFFFF;stop-opacity:0.7"/>
	<stop  offset="1" style="stop-color:#FFFFFF"/>
</linearGradient>
<path class="st12" d="M217.3,276.6c0-4.3-3.5-7.8-7.8-7.8s-7.8,3.5-7.8,7.8c0,4.2,3.2,7.5,7.3,7.8c0.1,0,0.3,0.1,0.4,0.1
	c0.1,0,0.3,0,0.4-0.1C214,284.2,217.3,280.9,217.3,276.6z M202.8,277.4h2.8c0.1,0.9,0.1,1.7,0.3,2.4h-2.3
	C203.1,279.1,202.8,278.3,202.8,277.4z M216.3,276.4h-2.9c0-0.9-0.1-1.9-0.3-2.7h2.4C216.1,274.5,216.3,275.4,216.3,276.4z
	 M212.5,276.4H210v-2.7h2.2C212.3,274.5,212.5,275.4,212.5,276.4z M209.9,272.7V270c0.7,0.3,1.4,1.3,1.9,2.7H209.9z M208.9,270v2.7
	H207C207.6,271.3,208.2,270.3,208.9,270z M208.9,273.7v2.7h-2.4c0-1,0.1-1.9,0.3-2.7H208.9z M205.5,276.4h-2.7c0-1,0.3-1.9,0.6-2.7
	h2.4C205.6,274.5,205.6,275.5,205.5,276.4z M206.5,277.4h2.4v2.4h-2.1C206.7,279.1,206.6,278.3,206.5,277.4z M208.9,280.9v2.5
	c-0.7-0.3-1.4-1.2-1.8-2.5H208.9z M209.9,283.4v-2.5h1.9C211.3,282.2,210.7,283.1,209.9,283.4z M209.9,279.9v-2.4h2.5
	c-0.1,0.9-0.1,1.7-0.4,2.4H209.9z M213.4,277.4h2.9c-0.1,0.9-0.4,1.7-0.8,2.4h-2.4C213.2,279.1,213.4,278.3,213.4,277.4z M215,272.7
	h-2.2c-0.3-1-0.7-1.8-1.1-2.4C213.1,270.7,214.3,271.6,215,272.7z M207.2,270.3c-0.4,0.6-0.9,1.4-1.2,2.4h-2
	C204.8,271.6,205.9,270.7,207.2,270.3z M204.2,280.9h1.9c0.3,0.9,0.6,1.6,1,2.2C206,282.6,204.9,281.8,204.2,280.9z M211.7,283.1
	c0.4-0.6,0.8-1.4,1.1-2.2h2C214,281.9,213,282.7,211.7,283.1z"/>
<linearGradient id="SVGID_14_" gradientUnits="userSpaceOnUse" x1="206.6" y1="39.1217" x2="206.6" y2="85.1217" gradientTransform="matrix(1 0 0 1 0 214.4783)">
	<stop  offset="0" style="stop-color:#41B782;stop-opacity:0.7"/>
	<stop  offset="1" style="stop-color:#FFFFFF;stop-opacity:0"/>
</linearGradient>
<path class="st13" d="M206.6,299.6c9.5,0,17.3-10.3,17.3-23s-7.7-23-17.3-23c-9.5,0-17.3,10.3-17.3,23
	C189.3,289.3,197,299.6,206.6,299.6z"/>
<radialGradient id="SVGID_15_" cx="271.8568" cy="-8.2816" r="0.999" gradientTransform="matrix(34.5 0 0 34.5 -9102.9609 485.1151)" gradientUnits="userSpaceOnUse">
	<stop  offset="0" style="stop-color:#FFFFFF"/>
	<stop  offset="1" style="stop-color:#BFA330;stop-opacity:0"/>
</radialGradient>
<path class="st14" d="M276.1,233.9c19.1,0,34.5-15.4,34.5-34.5s-15.4-34.5-34.5-34.5s-34.5,15.4-34.5,34.5S257,233.9,276.1,233.9z"
	/>
<linearGradient id="SVGID_16_" gradientUnits="userSpaceOnUse" x1="291.525" y1="-160.5533" x2="197.275" y2="-66.3033" gradientTransform="matrix(1 0 0 1 0 214.4783)">
	<stop  offset="0" style="stop-color:#FF3815;stop-opacity:0"/>
	<stop  offset="1" style="stop-color:#FF3815"/>
</linearGradient>
<path class="st15" d="M209.9,160.8V81.1l69-39.8V121L209.9,160.8z"/>
<linearGradient id="SVGID_17_" gradientUnits="userSpaceOnUse" x1="313.4" y1="-88.1783" x2="244.4" y2="-19.1783" gradientTransform="matrix(1 0 0 1 0 214.4783)">
	<stop  offset="0" style="stop-color:#FF3815;stop-opacity:0"/>
	<stop  offset="1" style="stop-color:#FF3815"/>
</linearGradient>
<path class="st16" d="M347.9,160.8l-69,39.8l-69-39.8l69-39.8L347.9,160.8z"/>
<linearGradient id="SVGID_18_" gradientUnits="userSpaceOnUse" x1="340.65" y1="-140.7283" x2="286.2049" y2="-86.2833" gradientTransform="matrix(1 0 0 1 0 214.4783)">
	<stop  offset="0" style="stop-color:#FF3815;stop-opacity:0"/>
	<stop  offset="1" style="stop-color:#FF3815"/>
</linearGradient>
<path class="st17" d="M347.9,160.8l-69-39.8V41.2l69,39.8V160.8z"/>
<linearGradient id="SVGID_19_" gradientUnits="userSpaceOnUse" x1="143.8" y1="-22.9783" x2="143.8" y2="-68.9783" gradientTransform="matrix(1 0 0 1 0 214.4783)">
	<stop  offset="0" style="stop-color:#FFFFFF"/>
	<stop  offset="1" style="stop-color:#BFA330;stop-opacity:0"/>
</linearGradient>
<path class="st18" d="M143.8,191.5c9.5,0,17.3-10.3,17.3-23s-7.7-23-17.3-23s-17.3,10.3-17.3,23
	C126.6,181.2,134.3,191.5,143.8,191.5z"/>
<linearGradient id="SVGID_20_" gradientUnits="userSpaceOnUse" x1="138.1" y1="-68.9783" x2="138.1" y2="-22.9783" gradientTransform="matrix(1 0 0 1 0 214.4783)">
	<stop  offset="0" style="stop-color:#FFFFFF"/>
	<stop  offset="1" style="stop-color:#BFA330;stop-opacity:0"/>
</linearGradient>
<path class="st19" d="M138.1,191.5c9.5,0,17.3-10.3,17.3-23s-7.7-23-17.3-23s-17.3,10.3-17.3,23S128.5,191.5,138.1,191.5z"/>
<path class="st20" d="M138.1,171.4l-3.3,5.8l3.3,5.8l3.3-5.8L138.1,171.4z"/>
<path class="st21" d="M141.4,165.7l-3.3,5.8l3.3,5.7l3.3-5.7L141.4,165.7z"/>
<path class="st21" d="M134.8,165.7l-3.3,5.8l3.3,5.7l3.3-5.7L134.8,165.7z"/>
<path class="st22" d="M144.7,159.9l-3.3,5.8l3.3,5.8l3.4-5.8L144.7,159.9z"/>
<path class="st22" d="M139.7,162.8h-3.3l-1.7,2.9l3.3,5.8l3.3-5.8L139.7,162.8z"/>
<path class="st22" d="M131.5,159.9l-3.4,5.8l3.4,5.8l3.3-5.8L131.5,159.9z"/>
<path class="st23" d="M148.1,165.7l3.3-5.8h-6.7L148.1,165.7z"/>
<path class="st23" d="M128.1,165.7l3.4-5.8h-6.7L128.1,165.7z"/>
<linearGradient id="SVGID_21_" gradientUnits="userSpaceOnUse" x1="2.3488" y1="11.2217" x2="417.6194" y2="11.2217" gradientTransform="matrix(1 0 0 1 0 214.4783)">
	<stop  offset="0" style="stop-color:#BFA330"/>
	<stop  offset="1" style="stop-color:#BFA330;stop-opacity:0"/>
</linearGradient>
<path class="st24" d="M290.2,329.5c-1,0-2.1,0-3.1,0c-42-0.5-88.3-10.6-137.6-30C98,279.1,59,250.9,33.3,215.4
	c-20.8-28.8-31.8-61.7-30.9-92.8c0-0.4,0.4-0.7,0.7-0.7c0.4,0,0.7,0.4,0.7,0.7c-1.6,56.4,36,132,146.1,175.4
	c49.2,19.4,95.3,29.5,137.1,30s70.7-8.8,87.7-16.7c15.5-7.3,35.1-20.6,39.8-34.6c0.9-2.9,1.5-5.7,1.7-8.1c0-0.4,0.4-0.7,0.8-0.6
	c0.4,0,0.7,0.4,0.6,0.8c-0.1,2.6-0.8,5.5-1.8,8.5c-4.7,14.4-24.9,28.2-40.5,35.5C358.7,320.3,330.5,329.5,290.2,329.5z"/>
</svg>
