<?xml version="1.0" encoding="UTF-8"?>
<svg fill="none" stroke-linecap="square" stroke-miterlimit="10" version="1.1" viewBox="0 0 592 366" xmlns="http://www.w3.org/2000/svg">
<path d="m0 0h592v366h-592v-366z" fill="#fff" fill-opacity="0"/>
<path d="m296 18.3c71.352 0 134.59 45.945 156.64 113.8l-156.64 50.895z" fill="#f9da1c"/>
<path d="m248.26 25.369c15.478-4.6874 31.563-7.0694 47.736-7.0694v164.7z" fill="#ff0dff"/>
<path d="m178.23 67.864c19.393-19.837 43.483-34.454 70.035-42.495l47.736 157.63z" fill="#e80c7a"/>
<path d="m137.33 138.84c7.438-26.726 21.506-51.141 40.9-70.978l117.77 115.14z" fill="#c00"/>
<path d="m179.69 299.61c-42.114-42.008-58.304-103.46-42.356-160.76l158.67 44.158z" fill="#ff530d"/>
<path d="m221.41 329.84c-15.409-7.8269-29.49-18.03-41.726-30.236l116.31-116.61z" fill="#ff6d01"/>
<path d="m452.64 132.1c20.574 63.319 1.0023 132.8-49.596 176.07-50.599 43.27-122.27 51.822-181.63 21.671l74.588-146.84z" fill="#fbbc04"/>
<path d="m25.566 27.597q-0.15625 1.3438-1 2.0938-0.84375 0.73438-2.2344 0.73438-1.5156 0-2.4219-1.0781-0.90625-1.0938-0.90625-2.9219v-0.8125q0-1.1875 0.42188-2.0938 0.42187-0.90625 1.2031-1.3906 0.78125-0.48437 1.7969-0.48437 1.3594 0 2.1719 0.76562 0.82813 0.76563 0.96875 2.0938h-1.125q-0.15625-1.0156-0.64062-1.4688-0.48438-0.45312-1.375-0.45312-1.0781 0-1.6875 0.79687-0.60938 0.79688-0.60938 2.2656v0.82812q0 1.3906 0.57813 2.2188 0.57812 0.8125 1.625 0.8125 0.9375 0 1.4375-0.42187 0.5-0.4375 0.67187-1.4844h1.125zm4.625-2.6719q-0.25-0.03125-0.53125-0.03125-1.0781 0-1.4531 0.90625v4.5h-1.0781v-6.3438h1.0469l0.015624 0.73437q0.53125-0.84375 1.5156-0.84375 0.3125 0 0.48437 0.078126v1zm3.5625 5.5q-1.2969 0-2.1094-0.84375-0.79688-0.85938-0.79688-2.2812v-0.1875q0-0.95313 0.35938-1.6875 0.35937-0.75 1-1.1562 0.65625-0.42188 1.4062-0.42188 1.2344 0 1.9219 0.8125t0.6875 2.3281v0.45312h-4.2969q0.03125 0.9375 0.54687 1.5156 0.53125 0.57812 1.3438 0.57812 0.5625 0 0.95313-0.23437 0.40625-0.23438 0.71875-0.625l0.65625 0.51562q-0.79688 1.2344-2.3906 1.2344zm-0.14062-5.6875q-0.65625 0-1.1094 0.48437-0.4375 0.46875-0.53125 1.3281h3.1719v-0.078126q-0.046876-0.82812-0.45313-1.2812-0.39062-0.45312-1.0781-0.45312zm7.4219 5.5625q-0.09375-0.1875-0.15625-0.67188-0.75 0.79688-1.7969 0.79688-0.9375 0-1.5469-0.53125-0.59375-0.53125-0.59375-1.3594 0-0.98437 0.75-1.5312 0.75-0.54687 2.125-0.54687h1.0469v-0.5q0-0.5625-0.34375-0.89063-0.32813-0.34375-1-0.34375-0.57813 0-0.96875 0.29688-0.39063 0.28125-0.39063 0.70312h-1.0938q0-0.48437 0.32813-0.92187 0.34375-0.4375 0.92187-0.6875 0.57813-0.26563 1.2656-0.26563 1.1094 0 1.7188 0.54688 0.625 0.54687 0.65625 1.5v2.9219q0 0.875 0.21875 1.3906v0.09375h-1.1406zm-1.7969-0.82813q0.51562 0 0.96875-0.26562 0.45312-0.26563 0.65625-0.6875v-1.2969h-0.84375q-2 0-2 1.1719 0 0.5 0.34375 0.79687 0.34375 0.28125 0.875 0.28125zm6.3594-7.0469v1.5312h1.1719v0.84375h-1.1719v3.9219q0 0.39063 0.15625 0.57813t0.53125 0.1875q0.1875 0 0.51563-0.0625v0.875q-0.42188 0.125-0.82813 0.125-0.71875 0-1.0938-0.4375-0.375-0.45313-0.375-1.2656v-3.9219h-1.1562v-0.84375h1.1562v-1.5312h1.0938zm2.2344 4.6406q0-0.92187 0.35937-1.6719 0.375-0.75 1.0312-1.1406 0.65625-0.40625 1.4844-0.40625 1.2969 0 2.0938 0.89063 0.8125 0.89062 0.8125 2.3906v0.078126q0 0.92187-0.35938 1.6562-0.35937 0.73437-1.0156 1.1562-0.65625 0.40625-1.5156 0.40625-1.2812 0-2.0938-0.89063-0.79687-0.90625-0.79687-2.3906v-0.078126zm1.0938 0.14063q0 1.0469 0.48437 1.6875 0.5 0.64062 1.3125 0.64062 0.82813 0 1.3125-0.64062 0.48438-0.65625 0.48438-1.8281 0-1.0312-0.5-1.6719-0.48438-0.65625-1.3125-0.65625-0.79688 0-1.2969 0.64062-0.48437 0.625-0.48437 1.8281zm9.2656-2.2812q-0.25-0.03125-0.53125-0.03125-1.0781 0-1.4531 0.90625v4.5h-1.0781v-6.3438h1.0469l0.015624 0.73437q0.53125-0.84375 1.5156-0.84375 0.3125 0 0.48437 0.078126v1zm1.1406 6.1094h-0.92188l3.5625-9.2656h0.92188l-3.5625 9.2656zm11.234-3.4375q-0.15625 1.3438-1 2.0938-0.84375 0.73438-2.2344 0.73438-1.5156 0-2.4219-1.0781-0.90625-1.0938-0.90625-2.9219v-0.8125q0-1.1875 0.42187-2.0938 0.42188-0.90625 1.2031-1.3906 0.78125-0.48437 1.7969-0.48437 1.3594 0 2.1719 0.76562 0.82812 0.76563 0.96875 2.0938h-1.125q-0.15625-1.0156-0.64063-1.4688-0.48437-0.45312-1.375-0.45312-1.0781 0-1.6875 0.79687-0.60937 0.79688-0.60937 2.2656v0.82812q0 1.3906 0.57812 2.2188 0.57813 0.8125 1.625 0.8125 0.9375 0 1.4375-0.42187 0.5-0.4375 0.67188-1.4844h1.125zm2.7344 2.7031h-1.0781v-6.3438h1.0781v6.3438zm-1.1719-8.0156q0-0.26562 0.15625-0.45312 0.17187-0.1875 0.48437-0.1875t0.46875 0.1875q0.17188 0.1875 0.17188 0.45312 0 0.25-0.17188 0.4375-0.15625 0.17188-0.46875 0.17188t-0.48437-0.17188q-0.15625-0.1875-0.15625-0.4375zm6.0625 2.6406q-0.25-0.03125-0.53125-0.03125-1.0781 0-1.4531 0.90625v4.5h-1.0781v-6.3438h1.0469l0.01563 0.73437q0.53125-0.84375 1.5156-0.84375 0.3125 0 0.48438 0.078126v1zm3.4688 4.6094q0.57812 0 1.0156-0.34375 0.4375-0.35937 0.48438-0.89062h1.0312q-0.03125 0.54687-0.39063 1.0469-0.34375 0.48438-0.92187 0.78125-0.5625 0.29688-1.2188 0.29688-1.2969 0-2.0625-0.85938-0.75-0.875-0.75-2.375v-0.1875q0-0.92187 0.32812-1.6406 0.34375-0.71875 0.96875-1.1094 0.64063-0.40625 1.5156-0.40625 1.0625 0 1.7656 0.64063 0.71875 0.625 0.76563 1.6562h-1.0312q-0.04688-0.625-0.46875-1.0156-0.42188-0.39062-1.0312-0.39062-0.82813 0-1.2812 0.59375-0.45313 0.59375-0.45313 1.7188v0.20312q0 1.0938 0.45313 1.6875 0.45312 0.59375 1.2812 0.59375zm7.375 0.14063q-0.625 0.75-1.8594 0.75-1.0156 0-1.5469-0.59375t-0.53125-1.75v-4.125h1.0781v4.0938q0 1.4531 1.1719 1.4531 1.25 0 1.6562-0.9375v-4.6094h1.0938v6.3438h-1.0312l-0.03125-0.625zm4.2656 0.625h-1.0781v-9h1.0781v9zm5.7344 0q-0.09375-0.1875-0.15625-0.67188-0.75 0.79688-1.7969 0.79688-0.9375 0-1.5469-0.53125-0.59375-0.53125-0.59375-1.3594 0-0.98437 0.75-1.5312 0.75-0.54687 2.125-0.54687h1.0469v-0.5q0-0.5625-0.34375-0.89063-0.32812-0.34375-1-0.34375-0.57812 0-0.96875 0.29688-0.39062 0.28125-0.39062 0.70312h-1.0938q0-0.48437 0.32812-0.92187 0.34375-0.4375 0.92188-0.6875 0.57812-0.26563 1.2656-0.26563 1.1094 0 1.7188 0.54688 0.625 0.54687 0.65625 1.5v2.9219q0 0.875 0.21875 1.3906v0.09375h-1.1406zm-1.7969-0.82813q0.51563 0 0.96875-0.26562 0.45313-0.26563 0.65625-0.6875v-1.2969h-0.84375q-2 0-2 1.1719 0 0.5 0.34375 0.79687 0.34375 0.28125 0.875 0.28125zm6.3594-7.0469v1.5312h1.1719v0.84375h-1.1719v3.9219q0 0.39063 0.15625 0.57813t0.53125 0.1875q0.1875 0 0.51562-0.0625v0.875q-0.42187 0.125-0.82812 0.125-0.71875 0-1.0938-0.4375-0.375-0.45313-0.375-1.2656v-3.9219h-1.1562v-0.84375h1.1562v-1.5312h1.0938zm3.7031 7.875h-1.0781v-6.3438h1.0781v6.3438zm-1.1719-8.0156q0-0.26562 0.15625-0.45312 0.17187-0.1875 0.48437-0.1875t0.46875 0.1875q0.17188 0.1875 0.17188 0.45312 0 0.25-0.17188 0.4375-0.15625 0.17188-0.46875 0.17188t-0.48437-0.17188q-0.15625-0.1875-0.15625-0.4375zm2.7031 4.7812q0-0.92187 0.35938-1.6719 0.375-0.75 1.0312-1.1406 0.65625-0.40625 1.4844-0.40625 1.2969 0 2.0938 0.89063 0.8125 0.89062 0.8125 2.3906v0.078126q0 0.92187-0.35937 1.6562-0.35938 0.73437-1.0156 1.1562-0.65625 0.40625-1.5156 0.40625-1.2812 0-2.0938-0.89063-0.79688-0.90625-0.79688-2.3906v-0.078126zm1.0938 0.14063q0 1.0469 0.48438 1.6875 0.5 0.64062 1.3125 0.64062 0.82812 0 1.3125-0.64062 0.48437-0.65625 0.48437-1.8281 0-1.0312-0.5-1.6719-0.48437-0.65625-1.3125-0.65625-0.79687 0-1.2969 0.64062-0.48438 0.625-0.48438 1.8281zm7.2188-3.25 0.03125 0.79687q0.73438-0.90625 1.9062-0.90625 2.0156 0 2.0312 2.2656v4.1875h-1.0938v-4.2031q0-0.67187-0.3125-1-0.29687-0.32812-0.95312-0.32812-0.53125 0-0.9375 0.28125-0.39063 0.28125-0.60938 0.73437v4.5156h-1.0781v-6.3438h1.0156z" fill="#999"/>
<path d="m23.581 45.441h1.1875v0.875h-1.1875v1.9844h-1.0781v-1.9844h-3.8906v-0.64062l3.8125-5.9062h1.1562v5.6719zm-3.7344 0h2.6562v-4.1875l-0.14062 0.23438-2.5156 3.9531zm6.2969 2.2969q0-0.28125 0.15625-0.46875 0.17187-0.1875 0.5-0.1875 0.34375 0 0.51562 0.1875 0.17188 0.1875 0.17188 0.46875 0 0.26562-0.17188 0.45312-0.17187 0.17188-0.51562 0.17188-0.32813 0-0.5-0.17188-0.15625-0.1875-0.15625-0.45312zm8.375-7.3594-3.5312 7.9219h-1.1406l3.5156-7.6406h-4.6094v-0.89062h5.7656v0.60937zm1.3906 1.0312q0-0.76562 0.48438-1.2656 0.5-0.5 1.2656-0.5 0.78125 0 1.2656 0.5 0.48437 0.5 0.48437 1.2969v0.42188q0 0.76562-0.5 1.2656-0.48437 0.48438-1.2344 0.48438-0.76563 0-1.2656-0.48438-0.5-0.5-0.5-1.3125v-0.40625zm0.8125 0.45313q0 0.45312 0.25 0.75 0.26563 0.29687 0.70313 0.29687 0.42187 0 0.67187-0.28125 0.25-0.29687 0.25-0.79687v-0.42188q0-0.45312-0.25-0.75-0.25-0.3125-0.6875-0.3125t-0.6875 0.3125q-0.25 0.29688-0.25 0.76563v0.4375zm3.3438 4.3438q0-0.76563 0.48438-1.25 0.5-0.5 1.2656-0.5 0.76563 0 1.25 0.5 0.5 0.48437 0.5 1.2969v0.40625q0 0.76563-0.48437 1.2656-0.48438 0.5-1.25 0.5-0.76563 0-1.2656-0.48438-0.5-0.5-0.5-1.3125v-0.42187zm0.8125 0.45312q0 0.46875 0.25 0.76563 0.26563 0.29687 0.70313 0.29687 0.42187 0 0.67187-0.28125 0.25-0.29687 0.25-0.79687v-0.4375q0-0.46875-0.26562-0.75-0.25-0.29688-0.67188-0.29688-0.42187 0-0.6875 0.29688-0.25 0.28125-0.25 0.78125v0.42187zm-2.9531 1-0.625-0.39062 4.1719-6.6719 0.60938 0.39063-4.1562 6.6719z" fill="#9e9e9e"/>
<path d="m18.3 34.8h107l147.78-6.5769" stroke="#757575" stroke-linecap="butt"/>
<path d="m275.08 28.223c0-1.1046-0.89542-2-2-2-1.1046 0-2 0.89543-2 2 0 1.1046 0.89544 2 2 2 1.1046 0 2-0.89543 2-2" fill="#9e9e9e"/>
<path d="m24.003 61.066h-3.5781l-0.79688 2.2344h-1.1562l3.25-8.5312h0.98438l3.2656 8.5312h-1.1562l-0.8125-2.2344zm-3.2344-0.92187h2.9062l-1.4531-3.9844-1.4531 3.9844zm7.375-3.1875 0.03125 0.79687q0.73437-0.90625 1.9062-0.90625 2.0156 0 2.0312 2.2656v4.1875h-1.0938v-4.2031q0-0.67187-0.3125-1-0.29688-0.32812-0.95313-0.32812-0.53125 0-0.9375 0.28125-0.39062 0.28125-0.60937 0.73437v4.5156h-1.0781v-6.3438h1.0156zm5.7188 3.125q0-1.4844 0.6875-2.3594t1.8125-0.875q1.1562 0 1.8125 0.8125l0.046874-0.70312h1v6.1875q0 1.2344-0.73437 1.9375-0.73438 0.71875-1.9531 0.71875-0.6875 0-1.3438-0.29687-0.65625-0.29688-1-0.79688l0.5625-0.65625q0.6875 0.85938 1.7031 0.85938 0.78125 0 1.2188-0.45313 0.45312-0.4375 0.45312-1.25v-0.54688q-0.65625 0.76563-1.7812 0.76563-1.1094 0-1.7969-0.89063-0.6875-0.90625-0.6875-2.4531zm1.0938 0.125q0 1.0625 0.4375 1.6875 0.4375 0.60937 1.2344 0.60937 1.0156 0 1.5-0.9375v-2.8906q-0.5-0.90625-1.5-0.90625-0.78125 0-1.2344 0.60937-0.4375 0.60938-0.4375 1.8281zm8.7969 3.2188q-1.2969 0-2.1094-0.84375-0.79688-0.85938-0.79688-2.2812v-0.1875q0-0.95313 0.35938-1.6875 0.35937-0.75 1-1.1562 0.65625-0.42188 1.4062-0.42188 1.2344 0 1.9219 0.8125t0.6875 2.3281v0.45312h-4.2969q0.03125 0.9375 0.54687 1.5156 0.53125 0.57812 1.3438 0.57812 0.5625 0 0.95313-0.23437 0.40625-0.23438 0.71875-0.625l0.65625 0.51562q-0.79688 1.2344-2.3906 1.2344zm-0.14062-5.6875q-0.65625 0-1.1094 0.48437-0.4375 0.46875-0.53125 1.3281h3.1719v-0.078126q-0.046876-0.82812-0.45313-1.2812-0.39062-0.45312-1.0781-0.45312zm4.6875 5.5625h-1.0781v-9h1.0781v9zm2.0312 0.73438h-0.92188l3.5625-9.2656h0.92188l-3.5625 9.2656zm6.1719-0.73438h-1.125v-8.5312h1.125v8.5312zm2.6406-6.3438 0.03125 0.79687q0.73437-0.90625 1.9062-0.90625 2.0156 0 2.0312 2.2656v4.1875h-1.0938v-4.2031q0-0.67187-0.3125-1-0.29688-0.32812-0.95313-0.32812-0.53125 0-0.9375 0.28125-0.39062 0.28125-0.60937 0.73437v4.5156h-1.0781v-6.3438h1.0156zm8.0625 4.875 1.5781-4.875h1.1094l-2.2812 6.3438h-0.82812l-2.2969-6.3438h1.1094l1.6094 4.875zm6.5469 1.5938q-1.2969 0-2.1094-0.84375-0.79687-0.85938-0.79687-2.2812v-0.1875q0-0.95313 0.35937-1.6875 0.35938-0.75 1-1.1562 0.65625-0.42188 1.4062-0.42188 1.2344 0 1.9219 0.8125t0.6875 2.3281v0.45312h-4.2969q0.03125 0.9375 0.54688 1.5156 0.53125 0.57812 1.3438 0.57812 0.5625 0 0.95312-0.23437 0.40625-0.23438 0.71875-0.625l0.65625 0.51562q-0.79687 1.2344-2.3906 1.2344zm-0.14063-5.6875q-0.65625 0-1.1094 0.48437-0.4375 0.46875-0.53125 1.3281h3.1719v-0.078126q-0.04687-0.82812-0.45312-1.2812-0.39063-0.45312-1.0781-0.45312zm4.5312-0.78125 0.03125 0.79687q0.73438-0.90625 1.9062-0.90625 2.0156 0 2.0312 2.2656v4.1875h-1.0938v-4.2031q0-0.67187-0.3125-1-0.29687-0.32812-0.95312-0.32812-0.53125 0-0.9375 0.28125-0.39063 0.28125-0.60938 0.73437v4.5156h-1.0781v-6.3438h1.0156zm9.6719 4.6562q0-0.4375-0.34375-0.67188-0.32813-0.25-1.1562-0.42187-0.8125-0.17188-1.2969-0.42188-0.48437-0.25-0.71875-0.57812-0.21875-0.34375-0.21875-0.8125 0-0.78125 0.65625-1.3125 0.65625-0.54688 1.6875-0.54688 1.0781 0 1.7344 0.5625 0.67187 0.54688 0.67187 1.4062h-1.0781q0-0.4375-0.39063-0.75-0.375-0.32812-0.9375-0.32812-0.59375 0-0.9375 0.26562-0.32812 0.25-0.32812 0.65625 0 0.39063 0.3125 0.59375 0.3125 0.20313 1.125 0.39063 0.8125 0.17187 1.3125 0.42187t0.73437 0.60938q0.25 0.35937 0.25 0.85937 0 0.85938-0.6875 1.375-0.67187 0.51563-1.75 0.51563-0.76562 0-1.3594-0.26563-0.57813-0.28125-0.90625-0.76562-0.32813-0.48438-0.32813-1.0469h1.0781q0.03125 0.54688 0.4375 0.875 0.40625 0.3125 1.0781 0.3125 0.60938 0 0.98438-0.25t0.375-0.67187zm3.7812-6.1875v1.5312h1.1719v0.84375h-1.1719v3.9219q0 0.39063 0.15625 0.57813t0.53125 0.1875q0.1875 0 0.51562-0.0625v0.875q-0.42187 0.125-0.82812 0.125-0.71875 0-1.0938-0.4375-0.375-0.45313-0.375-1.2656v-3.9219h-1.1562v-0.84375h1.1562v-1.5312h1.0938zm2.2344 4.6406q0-0.92187 0.35938-1.6719 0.375-0.75 1.0312-1.1406 0.65625-0.40625 1.4844-0.40625 1.2969 0 2.0938 0.89063 0.8125 0.89062 0.8125 2.3906v0.078126q0 0.92187-0.35937 1.6562-0.35938 0.73437-1.0156 1.1562-0.65625 0.40625-1.5156 0.40625-1.2812 0-2.0938-0.89063-0.79688-0.90625-0.79688-2.3906v-0.078126zm1.0938 0.14063q0 1.0469 0.48438 1.6875 0.5 0.64062 1.3125 0.64062 0.82812 0 1.3125-0.64062 0.48437-0.65625 0.48437-1.8281 0-1.0312-0.5-1.6719-0.48437-0.65625-1.3125-0.65625-0.79687 0-1.2969 0.64062-0.48438 0.625-0.48438 1.8281zm9.2656-2.2812q-0.25-0.03125-0.53125-0.03125-1.0781 0-1.4531 0.90625v4.5h-1.0781v-6.3438h1.0469l0.01563 0.73437q0.53125-0.84375 1.5156-0.84375 0.3125 0 0.48438 0.078126v1zm4.625 3.6875q0-0.4375-0.34375-0.67188-0.32813-0.25-1.1562-0.42187-0.8125-0.17188-1.2969-0.42188-0.48437-0.25-0.71875-0.57812-0.21875-0.34375-0.21875-0.8125 0-0.78125 0.65625-1.3125 0.65625-0.54688 1.6875-0.54688 1.0781 0 1.7344 0.5625 0.67187 0.54688 0.67187 1.4062h-1.0781q0-0.4375-0.39063-0.75-0.375-0.32812-0.9375-0.32812-0.59375 0-0.9375 0.26562-0.32812 0.25-0.32812 0.65625 0 0.39063 0.3125 0.59375 0.3125 0.20313 1.125 0.39063 0.8125 0.17187 1.3125 0.42187t0.73437 0.60938q0.25 0.35937 0.25 0.85937 0 0.85938-0.6875 1.375-0.67187 0.51563-1.75 0.51563-0.76562 0-1.3594-0.26563-0.57813-0.28125-0.90625-0.76562-0.32813-0.48438-0.32813-1.0469h1.0781q0.03125 0.54688 0.4375 0.875 0.40625 0.3125 1.0781 0.3125 0.60938 0 0.98438-0.25t0.375-0.67187z" fill="#999"/>
<path d="m24.191 74.988q0 0.64063-0.34375 1.1406t-0.90625 0.78125q0.65625 0.28125 1.0469 0.84375 0.39062 0.54687 0.39062 1.25 0 1.0938-0.75 1.7656-0.73437 0.65625-1.9531 0.65625-1.2344 0-1.9844-0.65625-0.73437-0.67187-0.73437-1.7656 0-0.70313 0.375-1.25 0.375-0.5625 1.0469-0.84375-0.5625-0.28125-0.89062-0.78125-0.32813-0.5-0.32813-1.1406 0-1.0781 0.6875-1.7031 0.6875-0.64063 1.8281-0.64063 1.125 0 1.8125 0.64063 0.70312 0.625 0.70312 1.7031zm-0.89062 3.9844q0-0.71875-0.45313-1.1562-0.45312-0.45313-1.1875-0.45313-0.73437 0-1.1875 0.45313-0.4375 0.4375-0.4375 1.1719 0 0.71875 0.4375 1.1406 0.4375 0.40625 1.2031 0.40625 0.75 0 1.1875-0.42188 0.4375-0.42187 0.4375-1.1406zm-1.625-5.4375q-0.64063 0-1.0469 0.40625-0.39062 0.39062-0.39062 1.0781 0 0.64063 0.39062 1.0469 0.39063 0.40625 1.0312 0.40625 0.65625 0 1.0469-0.40625 0.39062-0.40625 0.39062-1.0469 0-0.65625-0.40625-1.0625-0.40625-0.42187-1.0156-0.42187zm4.4688 7.2031q0-0.28125 0.15625-0.46875 0.17187-0.1875 0.5-0.1875 0.34375 0 0.51562 0.1875 0.17188 0.1875 0.17188 0.46875 0 0.26563-0.17188 0.45313-0.17187 0.17187-0.51562 0.17187-0.32813 0-0.5-0.17187-0.15625-0.1875-0.15625-0.45313zm8.2188-3.0781q0 1.9062-0.65625 2.8438-0.64063 0.92187-2.0312 0.92187-1.3594 0-2.0156-0.90625t-0.6875-2.7188v-1.4375q0-1.8906 0.64063-2.7969 0.65625-0.92188 2.0469-0.92188 1.375 0 2.0312 0.89063 0.65625 0.875 0.67188 2.7188v1.4062zm-1.0938-1.4844q0-1.375-0.39063-2-0.375-0.64062-1.2188-0.64062-0.82812 0-1.2188 0.64062-0.375 0.625-0.375 1.9219v1.7344q0 1.375 0.39063 2.0469 0.40625 0.65625 1.2188 0.65625 0.79687 0 1.1875-0.625 0.39062-0.625 0.40625-1.9531v-1.7812zm2.6406-1.7656q0-0.76563 0.48438-1.2656 0.5-0.5 1.2656-0.5 0.78125 0 1.2656 0.5 0.48437 0.5 0.48437 1.2969v0.42187q0 0.76563-0.5 1.2656-0.48437 0.48437-1.2344 0.48437-0.76563 0-1.2656-0.48437-0.5-0.5-0.5-1.3125v-0.40625zm0.8125 0.45312q0 0.45313 0.25 0.75 0.26563 0.29688 0.70313 0.29688 0.42187 0 0.67187-0.28125 0.25-0.29688 0.25-0.79688v-0.42187q0-0.45313-0.25-0.75-0.25-0.3125-0.6875-0.3125t-0.6875 0.3125q-0.25 0.29687-0.25 0.76562v0.4375zm3.3438 4.3438q0-0.76562 0.48438-1.25 0.5-0.5 1.2656-0.5 0.76563 0 1.25 0.5 0.5 0.48438 0.5 1.2969v0.40625q0 0.76562-0.48437 1.2656-0.48438 0.5-1.25 0.5-0.76563 0-1.2656-0.48437-0.5-0.5-0.5-1.3125v-0.42188zm0.8125 0.45313q0 0.46875 0.25 0.76562 0.26563 0.29688 0.70313 0.29688 0.42187 0 0.67187-0.28125 0.25-0.29688 0.25-0.79688v-0.4375q0-0.46875-0.26562-0.75-0.25-0.29687-0.67188-0.29687-0.42187 0-0.6875 0.29687-0.25 0.28125-0.25 0.78125v0.42188zm-2.9531 1-0.625-0.39063 4.1719-6.6719 0.60938 0.39062-4.1562 6.6719z" fill="#9e9e9e"/>
<path d="m18.3 67.8h107l89.535-18.567" stroke="#757575" stroke-linecap="butt"/>
<path d="m216.83 49.233c0-1.1046-0.89543-2-2-2s-2 0.89543-2 2 0.89543 2 2 2 2-0.89543 2-2" fill="#9e9e9e"/>
<path d="m20.738 91.85 2.7969 6.9531 2.7812-6.9531h1.4688v8.5312h-1.125v-3.3281l0.10938-3.5781-2.8125 6.9062h-0.85938l-2.7969-6.8906 0.10937 3.5625v3.3281h-1.125v-8.5312h1.4531zm12.297 8.5312q-0.09375-0.1875-0.15625-0.67187-0.75 0.79687-1.7969 0.79687-0.9375 0-1.5469-0.53125-0.59375-0.53125-0.59375-1.3594 0-0.98438 0.75-1.5312 0.75-0.54688 2.125-0.54688h1.0469v-0.5q0-0.5625-0.34375-0.89062-0.32813-0.34375-1-0.34375-0.57813 0-0.96875 0.29687-0.39063 0.28125-0.39063 0.70313h-1.0938q0-0.48438 0.32813-0.92188 0.34375-0.4375 0.92187-0.6875 0.57813-0.26562 1.2656-0.26562 1.1094 0 1.7188 0.54687 0.625 0.54688 0.65625 1.5v2.9219q0 0.875 0.21875 1.3906v0.09375h-1.1406zm-1.7969-0.82812q0.51562 0 0.96875-0.26563 0.45312-0.26562 0.65625-0.6875v-1.2969h-0.84375q-2 0-2 1.1719 0 0.5 0.34375 0.79688 0.34375 0.28125 0.875 0.28125zm7.9531-4.5469q-0.25-0.03125-0.53125-0.03125-1.0781 0-1.4531 0.90625v4.5h-1.0781v-6.3438h1.0469l0.015624 0.73438q0.53125-0.84375 1.5156-0.84375 0.3125 0 0.48437 0.07812v1zm2.7031 2.4375-0.6875 0.70313v2.2344h-1.0781v-9h1.0781v5.4375l0.57812-0.6875 1.9844-2.0938h1.3125l-2.4688 2.6562 2.7656 3.6875h-1.2812l-2.2031-2.9375zm6.8594 3.0625q-1.2969 0-2.1094-0.84375-0.79688-0.85937-0.79688-2.2812v-0.1875q0-0.95312 0.35938-1.6875 0.35937-0.75 1-1.1562 0.65625-0.42187 1.4062-0.42187 1.2344 0 1.9219 0.8125t0.6875 2.3281v0.45313h-4.2969q0.03125 0.9375 0.54687 1.5156 0.53125 0.57813 1.3438 0.57813 0.5625 0 0.95313-0.23438 0.40625-0.23437 0.71875-0.625l0.65625 0.51563q-0.79688 1.2344-2.3906 1.2344zm-0.14062-5.6875q-0.65625 0-1.1094 0.48438-0.4375 0.46875-0.53125 1.3281h3.1719v-0.07812q-0.046876-0.82813-0.45313-1.2812-0.39062-0.45313-1.0781-0.45313zm4.9844-2.3125v1.5312h1.1719v0.84375h-1.1719v3.9219q0 0.39062 0.15625 0.57812t0.53125 0.1875q0.1875 0 0.51563-0.0625v0.875q-0.42188 0.125-0.82813 0.125-0.71875 0-1.0938-0.4375-0.375-0.45312-0.375-1.2656v-3.9219h-1.1562v-0.84375h1.1562v-1.5312h1.0938zm3.7031 7.875h-1.0781v-6.3438h1.0781v6.3438zm-1.1719-8.0156q0-0.26563 0.15625-0.45313 0.17188-0.1875 0.48438-0.1875t0.46875 0.1875q0.17187 0.1875 0.17187 0.45313 0 0.25-0.17187 0.4375-0.15625 0.17187-0.46875 0.17187t-0.48438-0.17187q-0.15625-0.1875-0.15625-0.4375zm4.0156 1.6719 0.03125 0.79688q0.73437-0.90625 1.9062-0.90625 2.0156 0 2.0312 2.2656v4.1875h-1.0938v-4.2031q0-0.67188-0.3125-1-0.29688-0.32813-0.95313-0.32813-0.53125 0-0.9375 0.28125-0.39062 0.28125-0.60937 0.73438v4.5156h-1.0781v-6.3438h1.0156zm5.7188 3.125q0-1.4844 0.6875-2.3594t1.8125-0.875q1.1562 0 1.8125 0.8125l0.04688-0.70313h1v6.1875q0 1.2344-0.73438 1.9375-0.73437 0.71875-1.9531 0.71875-0.6875 0-1.3438-0.29687-0.65625-0.29688-1-0.79688l0.5625-0.65625q0.6875 0.85938 1.7031 0.85938 0.78125 0 1.2188-0.45313 0.45313-0.4375 0.45313-1.25v-0.54687q-0.65625 0.76562-1.7812 0.76562-1.1094 0-1.7969-0.89062-0.6875-0.90625-0.6875-2.4531zm1.0938 0.125q0 1.0625 0.4375 1.6875 0.4375 0.60938 1.2344 0.60938 1.0156 0 1.5-0.9375v-2.8906q-0.5-0.90625-1.5-0.90625-0.78125 0-1.2344 0.60938-0.4375 0.60937-0.4375 1.8281z" fill="#999"/>
<path d="m24.191 112.07q0 0.64063-0.34375 1.1406t-0.90625 0.78125q0.65625 0.28125 1.0469 0.84375 0.39062 0.54687 0.39062 1.25 0 1.0938-0.75 1.7656-0.73437 0.65625-1.9531 0.65625-1.2344 0-1.9844-0.65625-0.73437-0.67187-0.73437-1.7656 0-0.70313 0.375-1.25 0.375-0.5625 1.0469-0.84375-0.5625-0.28125-0.89062-0.78125-0.32813-0.5-0.32813-1.1406 0-1.0781 0.6875-1.7031 0.6875-0.64063 1.8281-0.64063 1.125 0 1.8125 0.64063 0.70312 0.625 0.70312 1.7031zm-0.89062 3.9844q0-0.71875-0.45313-1.1562-0.45312-0.45313-1.1875-0.45313-0.73437 0-1.1875 0.45313-0.4375 0.4375-0.4375 1.1719 0 0.71875 0.4375 1.1406 0.4375 0.40625 1.2031 0.40625 0.75 0 1.1875-0.42188 0.4375-0.42187 0.4375-1.1406zm-1.625-5.4375q-0.64063 0-1.0469 0.40625-0.39062 0.39062-0.39062 1.0781 0 0.64063 0.39062 1.0469 0.39063 0.40625 1.0312 0.40625 0.65625 0 1.0469-0.40625 0.39062-0.40625 0.39062-1.0469 0-0.65625-0.40625-1.0625-0.40625-0.42187-1.0156-0.42187zm4.4688 7.2031q0-0.28125 0.15625-0.46875 0.17187-0.1875 0.5-0.1875 0.34375 0 0.51562 0.1875 0.17188 0.1875 0.17188 0.46875 0 0.26563-0.17188 0.45313-0.17187 0.17187-0.51562 0.17187-0.32813 0-0.5-0.17187-0.15625-0.1875-0.15625-0.45313zm8.2188-3.0781q0 1.9062-0.65625 2.8438-0.64063 0.92187-2.0312 0.92187-1.3594 0-2.0156-0.90625t-0.6875-2.7188v-1.4375q0-1.8906 0.64063-2.7969 0.65625-0.92188 2.0469-0.92188 1.375 0 2.0312 0.89063 0.65625 0.875 0.67188 2.7188v1.4062zm-1.0938-1.4844q0-1.375-0.39063-2-0.375-0.64062-1.2188-0.64062-0.82812 0-1.2188 0.64062-0.375 0.625-0.375 1.9219v1.7344q0 1.375 0.39063 2.0469 0.40625 0.65625 1.2188 0.65625 0.79687 0 1.1875-0.625 0.39062-0.625 0.40625-1.9531v-1.7812zm2.6406-1.7656q0-0.76563 0.48438-1.2656 0.5-0.5 1.2656-0.5 0.78125 0 1.2656 0.5 0.48437 0.5 0.48437 1.2969v0.42187q0 0.76563-0.5 1.2656-0.48437 0.48437-1.2344 0.48437-0.76563 0-1.2656-0.48437-0.5-0.5-0.5-1.3125v-0.40625zm0.8125 0.45312q0 0.45313 0.25 0.75 0.26563 0.29688 0.70313 0.29688 0.42187 0 0.67187-0.28125 0.25-0.29688 0.25-0.79688v-0.42187q0-0.45313-0.25-0.75-0.25-0.3125-0.6875-0.3125t-0.6875 0.3125q-0.25 0.29687-0.25 0.76562v0.4375zm3.3438 4.3438q0-0.76562 0.48438-1.25 0.5-0.5 1.2656-0.5 0.76563 0 1.25 0.5 0.5 0.48438 0.5 1.2969v0.40625q0 0.76562-0.48437 1.2656-0.48438 0.5-1.25 0.5-0.76563 0-1.2656-0.48437-0.5-0.5-0.5-1.3125v-0.42188zm0.8125 0.45313q0 0.46875 0.25 0.76562 0.26563 0.29688 0.70313 0.29688 0.42187 0 0.67187-0.28125 0.25-0.29688 0.25-0.79688v-0.4375q0-0.46875-0.26562-0.75-0.25-0.29687-0.67188-0.29687-0.42187 0-0.6875 0.29687-0.25 0.28125-0.25 0.78125v0.42188zm-2.9531 1-0.625-0.39063 4.1719-6.6719 0.60938 0.39062-4.1562 6.6719z" fill="#9e9e9e"/>
<path d="m18.3 104.88h107 35.132" stroke="#757575" stroke-linecap="butt"/>
<path d="m162.43 104.88c0-1.1046-0.89544-2-2-2-1.1046 0-2 0.89543-2 2 0 1.1046 0.89543 2 2 2 1.1046 0 2-0.89542 2-2" fill="#9e9e9e"/>
<path d="m25.566 215.66q-0.15625 1.3438-1 2.0938-0.84375 0.73437-2.2344 0.73437-1.5156 0-2.4219-1.0781-0.90625-1.0938-0.90625-2.9219v-0.8125q0-1.1875 0.42188-2.0938 0.42187-0.90625 1.2031-1.3906 0.78125-0.48438 1.7969-0.48438 1.3594 0 2.1719 0.76563 0.82813 0.76562 0.96875 2.0938h-1.125q-0.15625-1.0156-0.64062-1.4688-0.48438-0.45313-1.375-0.45313-1.0781 0-1.6875 0.79688-0.60938 0.79687-0.60938 2.2656v0.82813q0 1.3906 0.57813 2.2188 0.57812 0.8125 1.625 0.8125 0.9375 0 1.4375-0.42188 0.5-0.4375 0.67187-1.4844h1.125zm1.2656-0.53125q0-0.92188 0.35937-1.6719 0.375-0.75 1.0312-1.1406 0.65625-0.40625 1.4844-0.40625 1.2969 0 2.0938 0.89062 0.8125 0.89063 0.8125 2.3906v0.07812q0 0.92188-0.35938 1.6562-0.35937 0.73438-1.0156 1.1562-0.65625 0.40625-1.5156 0.40625-1.2812 0-2.0938-0.89062-0.79687-0.90625-0.79687-2.3906v-0.07812zm1.0938 0.14062q0 1.0469 0.48437 1.6875 0.5 0.64063 1.3125 0.64063 0.82813 0 1.3125-0.64063 0.48438-0.65625 0.48438-1.8281 0-1.0312-0.5-1.6719-0.48438-0.65625-1.3125-0.65625-0.79688 0-1.2969 0.64063-0.48437 0.625-0.48437 1.8281zm7.2188-3.25 0.03125 0.70313q0.6875-0.8125 1.875-0.8125 1.3281 0 1.8125 1.0156 0.3125-0.45312 0.8125-0.73437 0.51562-0.28125 1.2031-0.28125 2.0938 0 2.125 2.2031v4.25h-1.0781v-4.1875q0-0.67187-0.3125-1-0.3125-0.34375-1.0469-0.34375-0.60937 0-1.0156 0.35938-0.39063 0.35937-0.45313 0.96875v4.2031h-1.0781v-4.1562q0-1.375-1.3594-1.375-1.0625 0-1.4531 0.90625v4.625h-1.0938v-6.3438h1.0312zm11 0 0.03125 0.70313q0.6875-0.8125 1.875-0.8125 1.3281 0 1.8125 1.0156 0.3125-0.45312 0.8125-0.73437 0.51562-0.28125 1.2031-0.28125 2.0938 0 2.125 2.2031v4.25h-1.0781v-4.1875q0-0.67187-0.3125-1-0.3125-0.34375-1.0469-0.34375-0.60937 0-1.0156 0.35938-0.39063 0.35937-0.45313 0.96875v4.2031h-1.0781v-4.1562q0-1.375-1.3594-1.375-1.0625 0-1.4531 0.90625v4.625h-1.0938v-6.3438h1.0312zm13.891 5.7188q-0.625 0.75-1.8594 0.75-1.0156 0-1.5469-0.59375t-0.53125-1.75v-4.125h1.0781v4.0938q0 1.4531 1.1719 1.4531 1.25 0 1.6562-0.9375v-4.6094h1.0938v6.3438h-1.0312l-0.03125-0.625zm4.1094-5.7188 0.03125 0.79688q0.73438-0.90625 1.9062-0.90625 2.0156 0 2.0312 2.2656v4.1875h-1.0938v-4.2031q0-0.67188-0.3125-1-0.29687-0.32813-0.95312-0.32813-0.53125 0-0.9375 0.28125-0.39063 0.28125-0.60938 0.73438v4.5156h-1.0781v-6.3438h1.0156zm7.1562 6.3438h-1.0781v-6.3438h1.0781v6.3438zm-1.1719-8.0156q0-0.26563 0.15625-0.45313 0.17187-0.1875 0.48437-0.1875t0.46875 0.1875q0.17188 0.1875 0.17188 0.45313 0 0.25-0.17188 0.4375-0.15625 0.17187-0.46875 0.17187t-0.48437-0.17187q-0.15625-0.1875-0.15625-0.4375zm4.4688 0.14062v1.5312h1.1719v0.84375h-1.1719v3.9219q0 0.39062 0.15625 0.57812t0.53125 0.1875q0.1875 0 0.51562-0.0625v0.875q-0.42187 0.125-0.82812 0.125-0.71875 0-1.0938-0.4375-0.375-0.45312-0.375-1.2656v-3.9219h-1.1562v-0.84375h1.1562v-1.5312h1.0938zm4.5938 6.2812 1.4844-4.75h1.1562l-2.5469 7.3281q-0.59375 1.5781-1.875 1.5781l-0.21875-0.01562-0.39063-0.07813v-0.875l0.28125 0.01563q0.5625 0 0.85938-0.21875 0.3125-0.21875 0.51562-0.8125l0.23438-0.65625-2.2656-6.2656h1.1875l1.5781 4.75zm11.812-2.1719h-3.5938v3.7656h-1.125v-8.5312h5.2969v0.92188h-4.1719v2.9219h3.5938v0.92188zm6.0312 3.1406q-0.625 0.75-1.8594 0.75-1.0156 0-1.5469-0.59375t-0.53125-1.75v-4.125h1.0781v4.0938q0 1.4531 1.1719 1.4531 1.25 0 1.6562-0.9375v-4.6094h1.0938v6.3438h-1.0312l-0.03125-0.625zm4.1094-5.7188 0.03125 0.79688q0.73438-0.90625 1.9062-0.90625 2.0156 0 2.0312 2.2656v4.1875h-1.0938v-4.2031q0-0.67188-0.3125-1-0.29687-0.32813-0.95312-0.32813-0.53125 0-0.9375 0.28125-0.39063 0.28125-0.60938 0.73438v4.5156h-1.0781v-6.3438h1.0156zm5.7188 3.125q0-1.4688 0.6875-2.3438 0.6875-0.89062 1.8125-0.89062 1.1094 0 1.7656 0.75v-3.2969h1.0781v9h-1l-0.04687-0.6875q-0.65625 0.8125-1.8125 0.8125-1.0938 0-1.7969-0.90625-0.6875-0.90625-0.6875-2.3594v-0.07813zm1.0781 0.125q0 1.0781 0.4375 1.6875 0.45312 0.60938 1.2344 0.60938 1.0312 0 1.5156-0.9375v-2.9062q-0.48438-0.89063-1.5-0.89063-0.79688 0-1.25 0.60938-0.4375 0.60937-0.4375 1.8281z" fill="#999"/>
<path d="m22.566 236.36h-1.0781v-7.2188l-2.1875 0.79688v-0.98438l3.1094-1.1719h0.15625v8.5781zm7.7031-8.5312v0.90625h-0.20313q-1.2656 0.03125-2.0156 0.76563-0.75 0.71875-0.875 2.0312 0.6875-0.76563 1.8438-0.76563 1.1094 0 1.7812 0.78125 0.67187 0.78125 0.67187 2.0312 0 1.3125-0.71875 2.1094-0.71875 0.79687-1.9375 0.79687t-1.9844-0.9375q-0.75-0.95312-0.75-2.4375v-0.40625q0-2.3594 1-3.6094t2.9844-1.2656h0.20313zm-1.4219 3.8438q-0.5625 0-1.0312 0.32813-0.46875 0.32812-0.65625 0.84375v0.39062q0 1.0625 0.46875 1.7031 0.48438 0.64062 1.1875 0.64062 0.73438 0 1.1562-0.53125 0.42188-0.54687 0.42188-1.4219t-0.42188-1.4062q-0.42187-0.54688-1.125-0.54688zm4.2969 4.125q0-0.28125 0.15625-0.46875 0.17187-0.1875 0.5-0.1875 0.34375 0 0.51562 0.1875 0.17188 0.1875 0.17188 0.46875 0 0.26563-0.17188 0.45313-0.17187 0.17187-0.51562 0.17187-0.32813 0-0.5-0.17187-0.15625-0.1875-0.15625-0.45313zm8.0469-5.75q0 0.64063-0.34375 1.1406t-0.90625 0.78125q0.65625 0.28125 1.0469 0.84375 0.39062 0.54687 0.39062 1.25 0 1.0938-0.75 1.7656-0.73437 0.65625-1.9531 0.65625-1.2344 0-1.9844-0.65625-0.73437-0.67187-0.73437-1.7656 0-0.70313 0.375-1.25 0.375-0.5625 1.0469-0.84375-0.5625-0.28125-0.89062-0.78125-0.32813-0.5-0.32813-1.1406 0-1.0781 0.6875-1.7031 0.6875-0.64063 1.8281-0.64063 1.125 0 1.8125 0.64063 0.70312 0.625 0.70312 1.7031zm-0.89062 3.9844q0-0.71875-0.45313-1.1562-0.45312-0.45313-1.1875-0.45313-0.73437 0-1.1875 0.45313-0.4375 0.4375-0.4375 1.1719 0 0.71875 0.4375 1.1406 0.4375 0.40625 1.2031 0.40625 0.75 0 1.1875-0.42188 0.4375-0.42187 0.4375-1.1406zm-1.625-5.4375q-0.64063 0-1.0469 0.40625-0.39062 0.39062-0.39062 1.0781 0 0.64063 0.39062 1.0469 0.39063 0.40625 1.0312 0.40625 0.65625 0 1.0469-0.40625 0.39062-0.40625 0.39062-1.0469 0-0.65625-0.40625-1.0625-0.40625-0.42187-1.0156-0.42187zm4.2344 0.875q0-0.76563 0.48438-1.2656 0.5-0.5 1.2656-0.5 0.78125 0 1.2656 0.5 0.48437 0.5 0.48437 1.2969v0.42187q0 0.76563-0.5 1.2656-0.48437 0.48437-1.2344 0.48437-0.76563 0-1.2656-0.48437-0.5-0.5-0.5-1.3125v-0.40625zm0.8125 0.45312q0 0.45313 0.25 0.75 0.26563 0.29688 0.70313 0.29688 0.42187 0 0.67187-0.28125 0.25-0.29688 0.25-0.79688v-0.42187q0-0.45313-0.25-0.75-0.25-0.3125-0.6875-0.3125t-0.6875 0.3125q-0.25 0.29687-0.25 0.76562v0.4375zm3.3438 4.3438q0-0.76562 0.48438-1.25 0.5-0.5 1.2656-0.5 0.76563 0 1.25 0.5 0.5 0.48438 0.5 1.2969v0.40625q0 0.76562-0.48437 1.2656-0.48438 0.5-1.25 0.5-0.76563 0-1.2656-0.48437-0.5-0.5-0.5-1.3125v-0.42188zm0.8125 0.45313q0 0.46875 0.25 0.76562 0.26563 0.29688 0.70313 0.29688 0.42187 0 0.67187-0.28125 0.25-0.29688 0.25-0.79688v-0.4375q0-0.46875-0.26562-0.75-0.25-0.29687-0.67188-0.29687-0.42187 0-0.6875 0.29687-0.25 0.28125-0.25 0.78125v0.42188zm-2.9531 1-0.625-0.39063 4.1719-6.6719 0.60938 0.39062-4.1562 6.6719z" fill="#9e9e9e"/>
<path d="m18.3 222.86h107 19.398" stroke="#757575" stroke-linecap="butt"/>
<path d="m146.7 222.86c0-1.1046-0.89541-2-2-2-1.1046 0-2 0.89543-2 2s0.89544 2 2 2c1.1046 0 2-0.89543 2-2" fill="#9e9e9e"/>
<path d="m25.191 297.59h-2.75v7.6094h-1.1094v-7.6094h-2.75v-0.92188h6.6094v0.92188zm3.5625 7.7344q-1.2969 0-2.1094-0.84375-0.79688-0.85937-0.79688-2.2812v-0.1875q0-0.95312 0.35938-1.6875 0.35937-0.75 1-1.1562 0.65625-0.42187 1.4062-0.42187 1.2344 0 1.9219 0.8125t0.6875 2.3281v0.45313h-4.2969q0.03125 0.9375 0.54687 1.5156 0.53125 0.57813 1.3438 0.57813 0.5625 0 0.95313-0.23438 0.40625-0.23437 0.71875-0.625l0.65625 0.51563q-0.79688 1.2344-2.3906 1.2344zm-0.14062-5.6875q-0.65625 0-1.1094 0.48438-0.4375 0.46875-0.53125 1.3281h3.1719v-0.07812q-0.046876-0.82813-0.45313-1.2812-0.39062-0.45313-1.0781-0.45313zm7.4219 5.5625q-0.09375-0.1875-0.15625-0.67187-0.75 0.79687-1.7969 0.79687-0.9375 0-1.5469-0.53125-0.59375-0.53125-0.59375-1.3594 0-0.98438 0.75-1.5312 0.75-0.54688 2.125-0.54688h1.0469v-0.5q0-0.5625-0.34375-0.89062-0.32813-0.34375-1-0.34375-0.57813 0-0.96875 0.29687-0.39063 0.28125-0.39063 0.70313h-1.0938q0-0.48438 0.32813-0.92188 0.34375-0.4375 0.92187-0.6875 0.57813-0.26562 1.2656-0.26562 1.1094 0 1.7188 0.54687 0.625 0.54688 0.65625 1.5v2.9219q0 0.875 0.21875 1.3906v0.09375h-1.1406zm-1.7969-0.82812q0.51562 0 0.96875-0.26563 0.45312-0.26562 0.65625-0.6875v-1.2969h-0.84375q-2 0-2 1.1719 0 0.5 0.34375 0.79688 0.34375 0.28125 0.875 0.28125zm5.9062-5.5156 0.03125 0.70313q0.6875-0.8125 1.875-0.8125 1.3281 0 1.8125 1.0156 0.3125-0.45312 0.8125-0.73437 0.51562-0.28125 1.2031-0.28125 2.0938 0 2.125 2.2031v4.25h-1.0781v-4.1875q0-0.67187-0.3125-1-0.3125-0.34375-1.0469-0.34375-0.60937 0-1.0156 0.35938-0.39063 0.35937-0.45313 0.96875v4.2031h-1.0781v-4.1562q0-1.375-1.3594-1.375-1.0625 0-1.4531 0.90625v4.625h-1.0938v-6.3438h1.0312zm19.703 2.3594q0 1.25-0.42187 2.1875-0.42188 0.92187-1.2031 1.4219-0.76562 0.5-1.7969 0.5-1 0-1.7812-0.5t-1.2188-1.4062q-0.42188-0.92187-0.4375-2.1406v-0.60938q0-1.2344 0.42187-2.1719 0.4375-0.9375 1.2188-1.4375 0.78125-0.51563 1.7969-0.51563 1.0156 0 1.7969 0.5t1.2031 1.4375q0.42187 0.9375 0.42187 2.1875v0.54688zm-1.1094-0.5625q0-1.5156-0.60938-2.3281-0.60937-0.8125-1.7031-0.8125-1.0781 0-1.6875 0.8125-0.60938 0.8125-0.625 2.25v0.64063q0 1.4688 0.60937 2.3125 0.625 0.82812 1.7031 0.82812 1.0938 0 1.6875-0.78125 0.60937-0.79687 0.625-2.2812v-0.64062zm7.7344 1.4531q0 1.4375-0.65625 2.3281-0.65625 0.89062-1.7969 0.89062-1.1562 0-1.8125-0.73437v3.0469h-1.0781v-8.7812h0.98438l0.046874 0.70313q0.67188-0.8125 1.8438-0.8125 1.1406 0 1.7969 0.85937 0.67188 0.85938 0.67188 2.3906v0.10937zm-1.0781-0.125q0-1.0781-0.46875-1.6875-0.45312-0.625-1.25-0.625-0.98438 0-1.4688 0.85938v3.0312q0.48437 0.875 1.4844 0.875 0.78126 0 1.2344-0.60938 0.46875-0.625 0.46875-1.8438zm4.2031-4.6562v1.5312h1.1719v0.84375h-1.1719v3.9219q0 0.39062 0.15625 0.57812t0.53125 0.1875q0.1875 0 0.51562-0.0625v0.875q-0.42187 0.125-0.82812 0.125-0.71875 0-1.0938-0.4375-0.375-0.45312-0.375-1.2656v-3.9219h-1.1562v-0.84375h1.1562v-1.5312h1.0938zm3.7031 7.875h-1.0781v-6.3438h1.0781v6.3438zm-1.1719-8.0156q0-0.26563 0.15625-0.45313 0.17187-0.1875 0.48437-0.1875t0.46875 0.1875q0.17188 0.1875 0.17188 0.45313 0 0.25-0.17188 0.4375-0.15625 0.17187-0.46875 0.17187t-0.48437-0.17187q-0.15625-0.1875-0.15625-0.4375zm2.7031 4.7812q0-0.92188 0.35938-1.6719 0.375-0.75 1.0312-1.1406 0.65625-0.40625 1.4844-0.40625 1.2969 0 2.0938 0.89062 0.8125 0.89063 0.8125 2.3906v0.07812q0 0.92188-0.35937 1.6562-0.35938 0.73438-1.0156 1.1562-0.65625 0.40625-1.5156 0.40625-1.2812 0-2.0938-0.89062-0.79688-0.90625-0.79688-2.3906v-0.07812zm1.0938 0.14062q0 1.0469 0.48438 1.6875 0.5 0.64063 1.3125 0.64063 0.82812 0 1.3125-0.64063 0.48437-0.65625 0.48437-1.8281 0-1.0312-0.5-1.6719-0.48437-0.65625-1.3125-0.65625-0.79687 0-1.2969 0.64063-0.48438 0.625-0.48438 1.8281zm7.2188-3.25 0.03125 0.79688q0.73438-0.90625 1.9062-0.90625 2.0156 0 2.0312 2.2656v4.1875h-1.0938v-4.2031q0-0.67188-0.3125-1-0.29687-0.32813-0.95312-0.32813-0.53125 0-0.9375 0.28125-0.39063 0.28125-0.60938 0.73438v4.5156h-1.0781v-6.3438h1.0156z" fill="#999"/>
<path d="m19.503 318.92 0.4375-4.25h4.375v1h-3.4531l-0.26563 2.3281q0.64063-0.375 1.4375-0.375 1.1562 0 1.8438 0.78125 0.6875 0.76562 0.6875 2.0781t-0.71875 2.0781q-0.70312 0.76562-1.9844 0.76562-1.125 0-1.8438-0.625-0.71875-0.64062-0.8125-1.75h1.0156q0.10938 0.73438 0.53125 1.1094 0.42188 0.375 1.1094 0.375 0.75 0 1.1875-0.51563 0.4375-0.51562 0.4375-1.4219 0-0.85938-0.46875-1.375-0.46875-0.51563-1.25-0.51563-0.70313 0-1.1094 0.29688l-0.28125 0.23437-0.875-0.21875zm6.6406 3.7188q0-0.28125 0.15625-0.46875 0.17187-0.1875 0.5-0.1875 0.34375 0 0.51562 0.1875 0.17188 0.1875 0.17188 0.46875 0 0.26563-0.17188 0.45313-0.17187 0.17187-0.51562 0.17187-0.32813 0-0.5-0.17187-0.15625-0.1875-0.15625-0.45313zm8.2188-3.0781q0 1.9062-0.65625 2.8438-0.64063 0.92187-2.0312 0.92187-1.3594 0-2.0156-0.90625t-0.6875-2.7188v-1.4375q0-1.8906 0.64063-2.7969 0.65625-0.92188 2.0469-0.92188 1.375 0 2.0312 0.89063 0.65625 0.875 0.67188 2.7188v1.4062zm-1.0938-1.4844q0-1.375-0.39063-2-0.375-0.64062-1.2188-0.64062-0.82812 0-1.2188 0.64062-0.375 0.625-0.375 1.9219v1.7344q0 1.375 0.39063 2.0469 0.40625 0.65625 1.2188 0.65625 0.79687 0 1.1875-0.625 0.39062-0.625 0.40625-1.9531v-1.7812zm2.6406-1.7656q0-0.76563 0.48438-1.2656 0.5-0.5 1.2656-0.5 0.78125 0 1.2656 0.5 0.48437 0.5 0.48437 1.2969v0.42187q0 0.76563-0.5 1.2656-0.48437 0.48437-1.2344 0.48437-0.76563 0-1.2656-0.48437-0.5-0.5-0.5-1.3125v-0.40625zm0.8125 0.45312q0 0.45313 0.25 0.75 0.26563 0.29688 0.70313 0.29688 0.42187 0 0.67187-0.28125 0.25-0.29688 0.25-0.79688v-0.42187q0-0.45313-0.25-0.75-0.25-0.3125-0.6875-0.3125t-0.6875 0.3125q-0.25 0.29687-0.25 0.76562v0.4375zm3.3438 4.3438q0-0.76562 0.48438-1.25 0.5-0.5 1.2656-0.5 0.76563 0 1.25 0.5 0.5 0.48438 0.5 1.2969v0.40625q0 0.76562-0.48437 1.2656-0.48438 0.5-1.25 0.5-0.76563 0-1.2656-0.48437-0.5-0.5-0.5-1.3125v-0.42188zm0.8125 0.45313q0 0.46875 0.25 0.76562 0.26563 0.29688 0.70313 0.29688 0.42187 0 0.67187-0.28125 0.25-0.29688 0.25-0.79688v-0.4375q0-0.46875-0.26562-0.75-0.25-0.29687-0.67188-0.29687-0.42187 0-0.6875 0.29687-0.25 0.28125-0.25 0.78125v0.42188zm-2.9531 1-0.625-0.39063 4.1719-6.6719 0.60938 0.39062-4.1562 6.6719z" fill="#9e9e9e"/>
<path d="m18.3 309.7h107 78.891" stroke="#757575" stroke-linecap="butt"/>
<path d="m206.19 309.7c0-1.1046-0.89541-2-2-2-1.1046 0-2 0.89545-2 2 0 1.1046 0.89544 2 2 2 1.1046 0 2-0.8954 2-2" fill="#9e9e9e"/>
<path d="m521.59 44.308h-2.75v7.6094h-1.1094v-7.6094h-2.75v-0.92187h6.6094v0.92187zm0.64062 4.375q0-0.92187 0.35938-1.6719 0.375-0.75 1.0313-1.1406 0.65624-0.40625 1.4844-0.40625 1.2969 0 2.0937 0.89063 0.8125 0.89062 0.8125 2.3906v0.078126q0 0.92187-0.35936 1.6562-0.35938 0.73437-1.0156 1.1562-0.65624 0.40625-1.5156 0.40625-1.2813 0-2.0938-0.89063-0.79688-0.90625-0.79688-2.3906v-0.078126zm1.0937 0.14063q0 1.0469 0.4844 1.6875 0.5 0.64062 1.3125 0.64062 0.8281 0 1.3125-0.64062 0.48436-0.65625 0.48436-1.8281 0-1.0312-0.5-1.6719-0.48436-0.65625-1.3125-0.65625-0.79686 0-1.2969 0.64062-0.4844 0.625-0.4844 1.8281zm7.9688 0.15625-0.6875 0.70312v2.2344h-1.0781v-9h1.0781v5.4375l0.57814-0.6875 1.9844-2.0938h1.3125l-2.4688 2.6562 2.7656 3.6875h-1.2812l-2.2031-2.9375zm6.8594 3.0625q-1.2969 0-2.1094-0.84375-0.79686-0.85938-0.79686-2.2812v-0.1875q0-0.95313 0.35936-1.6875 0.35938-0.75 1-1.1562 0.65624-0.42188 1.4062-0.42188 1.2344 0 1.9219 0.8125t0.6875 2.3281v0.45312h-4.2969q0.03126 0.9375 0.5469 1.5156 0.53124 0.57812 1.3437 0.57812 0.5625 0 0.95312-0.23437 0.40624-0.23438 0.71874-0.625l0.65626 0.51562q-0.79686 1.2344-2.3906 1.2344zm-0.14064-5.6875q-0.65624 0-1.1094 0.48437-0.4375 0.46875-0.53124 1.3281h3.1719v-0.078126q-0.04686-0.82812-0.45312-1.2812-0.39064-0.45312-1.0781-0.45312zm4.5313-0.78125 0.03124 0.79687q0.7344-0.90625 1.9063-0.90625 2.0156 0 2.0312 2.2656v4.1875h-1.0937v-4.2031q0-0.67187-0.3125-1-0.29686-0.32812-0.95312-0.32812-0.53124 0-0.9375 0.28125-0.39064 0.28125-0.60938 0.73437v4.5156h-1.0781v-6.3438h1.0156zm11.656 2.5469q-1.4375-0.42187-2.1094-1.0312-0.65624-0.60937-0.65624-1.5 0-1 0.79686-1.6562 0.8125-0.67187 2.1094-0.67187 0.875 0 1.5625 0.34375t1.0625 0.9375q0.39062 0.59375 0.39062 1.3125h-1.1406q0-0.78125-0.5-1.2188-0.48438-0.4375-1.375-0.4375-0.82814 0-1.2969 0.375-0.46876 0.35937-0.46876 1 0 0.53125 0.4375 0.89062 0.45314 0.35938 1.5156 0.65625 1.0625 0.29688 1.6563 0.65625 0.60936 0.35938 0.8906 0.84375 0.2969 0.48438 0.2969 1.125 0 1.0469-0.8125 1.6719t-2.1563 0.625q-0.89064 0-1.6562-0.34375-0.75-0.34375-1.1719-0.92188-0.40624-0.59375-0.40624-1.3281h1.125q0 0.76562 0.57814 1.2188 0.5781 0.45312 1.5312 0.45312 0.89062 0 1.3594-0.35937 0.46876-0.375 0.46876-1t-0.4375-0.96875-1.5938-0.67188zm8.2344 3.7969q-0.09376-0.1875-0.15626-0.67188-0.75 0.79688-1.7969 0.79688-0.9375 0-1.5469-0.53125-0.59376-0.53125-0.59376-1.3594 0-0.98437 0.75-1.5312 0.75-0.54687 2.125-0.54687h1.0469v-0.5q0-0.5625-0.34374-0.89063-0.32812-0.34375-1-0.34375-0.57812 0-0.96876 0.29688-0.3906 0.28125-0.3906 0.70312h-1.0938q0-0.48437 0.32812-0.92187 0.34374-0.4375 0.92188-0.6875 0.57812-0.26563 1.2656-0.26563 1.1094 0 1.7187 0.54688 0.625 0.54687 0.65626 1.5v2.9219q0 0.875 0.21874 1.3906v0.09375h-1.1406zm-1.7969-0.82813q0.51564 0 0.96876-0.26562 0.45314-0.26563 0.65624-0.6875v-1.2969h-0.84374q-2 0-2 1.1719 0 0.5 0.34374 0.79687 0.34376 0.28125 0.875 0.28125zm6.0625 0.82813h-1.0781v-9h1.0781v9zm4.4531 0.125q-1.2969 0-2.1094-0.84375-0.79686-0.85938-0.79686-2.2812v-0.1875q0-0.95313 0.35936-1.6875 0.35938-0.75 1-1.1562 0.65624-0.42188 1.4062-0.42188 1.2344 0 1.9219 0.8125t0.6875 2.3281v0.45312h-4.2969q0.03126 0.9375 0.5469 1.5156 0.53124 0.57812 1.3437 0.57812 0.5625 0 0.95312-0.23437 0.40624-0.23438 0.71874-0.625l0.65626 0.51562q-0.79686 1.2344-2.3906 1.2344zm-0.14064-5.6875q-0.65624 0-1.1094 0.48437-0.4375 0.46875-0.53124 1.3281h3.1719v-0.078126q-0.04686-0.82812-0.45312-1.2812-0.39064-0.45312-1.0781-0.45312z" fill="#999"/>
<path d="m547 69.917h-5.5938v-0.78125l2.9531-3.2812q0.65624-0.75 0.90624-1.2031 0.25-0.46875 0.25-0.96875 0-0.67188-0.40624-1.0938-0.39062-0.4375-1.0781-0.4375-0.79688 0-1.25 0.46875-0.45314 0.45312-0.45314 1.2812h-1.0781q0-1.1875 0.75-1.9062 0.7656-0.73438 2.0312-0.73438 1.2031 0 1.8906 0.625t0.6875 1.6719q0 1.25-1.6094 3l-2.2813 2.4688h4.2813v0.89062zm6.7656-3.6406q0 1.9062-0.65624 2.8438-0.64062 0.92187-2.0313 0.92187-1.3594 0-2.0156-0.90625-0.65626-0.90625-0.6875-2.7188v-1.4375q0-1.8906 0.6406-2.7969 0.65626-0.92188 2.0469-0.92188 1.375 0 2.0312 0.89062 0.65626 0.875 0.67186 2.7188v1.4062zm-1.0937-1.4844q0-1.375-0.39062-2-0.375-0.64062-1.2187-0.64062-0.82814 0-1.2188 0.64062-0.375 0.625-0.375 1.9219v1.7344q0 1.375 0.39062 2.0469 0.40624 0.65625 1.2187 0.65625 0.7969 0 1.1875-0.625 0.39064-0.625 0.40626-1.9531v-1.7812zm2.875 4.5625q0-0.28125 0.15624-0.46875 0.1719-0.1875 0.5-0.1875 0.34376 0 0.51564 0.1875 0.17186 0.1875 0.17186 0.46875 0 0.26563-0.17186 0.45313-0.17188 0.17187-0.51564 0.17187-0.3281 0-0.5-0.17187-0.15624-0.1875-0.15624-0.45313zm8.2187-3.0781q0 1.9062-0.65624 2.8438-0.64062 0.92187-2.0313 0.92187-1.3594 0-2.0156-0.90625-0.65626-0.90625-0.6875-2.7188v-1.4375q0-1.8906 0.6406-2.7969 0.65626-0.92188 2.0469-0.92188 1.375 0 2.0312 0.89062 0.65626 0.875 0.67186 2.7188v1.4062zm-1.0937-1.4844q0-1.375-0.39062-2-0.375-0.64062-1.2187-0.64062-0.82814 0-1.2188 0.64062-0.375 0.625-0.375 1.9219v1.7344q0 1.375 0.39062 2.0469 0.40624 0.65625 1.2187 0.65625 0.7969 0 1.1875-0.625 0.39064-0.625 0.40626-1.9531v-1.7812zm2.6406-1.7656q0-0.76562 0.48436-1.2656 0.5-0.5 1.2656-0.5 0.78124 0 1.2656 0.5 0.4844 0.5 0.4844 1.2969v0.42188q0 0.76563-0.5 1.2656-0.4844 0.48437-1.2344 0.48437-0.7656 0-1.2656-0.48437-0.5-0.5-0.5-1.3125v-0.40625zm0.8125 0.45312q0 0.45312 0.25 0.75 0.2656 0.29688 0.7031 0.29688 0.4219 0 0.6719-0.28125 0.25-0.29688 0.25-0.79688v-0.42188q0-0.45312-0.25-0.75-0.25-0.3125-0.6875-0.3125t-0.6875 0.3125q-0.25 0.29688-0.25 0.76562v0.4375zm3.3437 4.3437q0-0.76562 0.48436-1.25 0.5-0.5 1.2656-0.5 0.76562 0 1.25 0.5 0.5 0.48438 0.5 1.2969v0.40625q0 0.76562-0.48438 1.2656-0.48436 0.5-1.25 0.5-0.76562 0-1.2656-0.48437-0.5-0.5-0.5-1.3125v-0.42188zm0.8125 0.45313q0 0.46875 0.25 0.76562 0.26562 0.29688 0.70312 0.29688 0.42188 0 0.67188-0.28125 0.25-0.29688 0.25-0.79688v-0.4375q0-0.46875-0.26564-0.75-0.25-0.29687-0.67186-0.29687-0.42188 0-0.6875 0.29687-0.25 0.28125-0.25 0.78125v0.42188zm-2.9531 1-0.625-0.39063 4.1719-6.6719 0.60936 0.39062-4.1563 6.6719z" fill="#9e9e9e"/>
<path d="m573.7 56.417h-107-78.732" stroke="#757575" stroke-linecap="butt"/>
<path d="m389.97 56.417c0-1.1046-0.89543-2-2-2-1.1046 0-2 0.89543-2 2 0 1.1046 0.89542 2 2 2 1.1046 0 2-0.89543 2-2" fill="#9e9e9e"/>
<path d="m527.97 294.71q-0.15624 1.3438-1 2.0938-0.84374 0.73438-2.2344 0.73438-1.5156 0-2.4219-1.0781-0.90626-1.0938-0.90626-2.9219v-0.8125q0-1.1875 0.42186-2.0938 0.4219-0.90624 1.2031-1.3906 0.78126-0.48438 1.7969-0.48438 1.3594 0 2.1719 0.76563 0.8281 0.76563 0.96874 2.0938h-1.125q-0.15624-1.0156-0.64064-1.4688-0.48436-0.45313-1.375-0.45313-1.0781 0-1.6875 0.79688-0.60936 0.79688-0.60936 2.2656v0.82813q0 1.3906 0.57812 2.2188 0.57814 0.8125 1.625 0.8125 0.9375 0 1.4375-0.42188 0.5-0.4375 0.67188-1.4844h1.125zm1.2656-0.53125q0-0.92188 0.35938-1.6719 0.375-0.75 1.0313-1.1406 0.65624-0.40625 1.4844-0.40625 1.2969 0 2.0937 0.89063 0.8125 0.89062 0.8125 2.3906v0.07812q0 0.92188-0.35936 1.6563-0.35938 0.73437-1.0156 1.1562-0.65624 0.40626-1.5156 0.40626-1.2813 0-2.0938-0.89063-0.79688-0.90625-0.79688-2.3906v-0.07812zm1.0937 0.14062q0 1.0469 0.4844 1.6875 0.5 0.64063 1.3125 0.64063 0.8281 0 1.3125-0.64063 0.48436-0.65624 0.48436-1.8281 0-1.0312-0.5-1.6719-0.48436-0.65624-1.3125-0.65624-0.79686 0-1.2969 0.64062-0.4844 0.625-0.4844 1.8281zm7.2188-3.25 0.03124 0.70313q0.6875-0.8125 1.875-0.8125 1.3281 0 1.8125 1.0156 0.3125-0.45313 0.8125-0.73438 0.51564-0.28125 1.2031-0.28125 2.0938 0 2.125 2.2031v4.25h-1.0781v-4.1875q0-0.67188-0.3125-1-0.3125-0.34376-1.0469-0.34376-0.60938 0-1.0156 0.35938-0.3906 0.35938-0.4531 0.96875v4.2031h-1.0781v-4.1563q0-1.375-1.3594-1.375-1.0625 0-1.4531 0.90626v4.625h-1.0938v-6.3438h1.0313zm15.328 3.25q0 1.4375-0.65626 2.3281-0.65624 0.89063-1.7969 0.89063-1.1563 0-1.8125-0.73438v3.0469h-1.0781v-8.7813h0.98436l0.0469 0.70313q0.67186-0.8125 1.8437-0.8125 1.1406 0 1.7969 0.85937 0.6719 0.85938 0.6719 2.3906v0.10937zm-1.0781-0.125q0-1.0781-0.46876-1.6875-0.4531-0.625-1.25-0.625-0.98436 0-1.4687 0.85938v3.0312q0.48438 0.875 1.4844 0.875 0.78126 0 1.2344-0.60937 0.46876-0.625 0.46876-1.8438zm6.6406 3.2188q-0.09376-0.1875-0.15626-0.67188-0.75 0.79688-1.7969 0.79688-0.9375 0-1.5469-0.53126-0.59376-0.53124-0.59376-1.3594 0-0.98437 0.75-1.5312t2.125-0.54688h1.0469v-0.5q0-0.5625-0.34374-0.89062-0.32812-0.34375-1-0.34375-0.57812 0-0.96876 0.29687-0.3906 0.28126-0.3906 0.70313h-1.0938q0-0.48437 0.32812-0.92187 0.34374-0.4375 0.92188-0.6875 0.57812-0.26563 1.2656-0.26563 1.1094 0 1.7187 0.54687 0.625 0.54688 0.65626 1.5v2.9219q0 0.875 0.21874 1.3906v0.09376h-1.1406zm-1.7969-0.82813q0.51564 0 0.96876-0.26563 0.45314-0.26562 0.65624-0.6875v-1.2969h-0.84374q-2 0-2 1.1719 0 0.5 0.34374 0.79688 0.34376 0.28125 0.875 0.28125zm5.9063-5.5156 0.03124 0.79688q0.7344-0.90625 1.9063-0.90625 2.0156 0 2.0312 2.2656v4.1875h-1.0937v-4.2031q0-0.67187-0.3125-1-0.29686-0.32813-0.95312-0.32813-0.53124 0-0.9375 0.28126-0.39064 0.28124-0.60938 0.73437v4.5156h-1.0781v-6.3438h1.0156zm8.0469 4.75 1.4844-4.75h1.1563l-2.5469 7.3281q-0.59376 1.5781-1.875 1.5781l-0.21876-0.01563-0.39064-0.07813v-0.875l0.28126 0.01563q0.5625 0 0.85938-0.21875 0.3125-0.21875 0.51562-0.8125l0.23438-0.65625-2.2656-6.2656h1.1875l1.5781 4.75z" fill="#999"/>
<path d="m542.98 310.62h0.8125q0.78124-0.01562 1.2187-0.40625t0.4375-1.0625q0-1.5-1.5-1.5-0.7031 0-1.125 0.40625-0.40624 0.40625-0.40624 1.0625h-1.0938q0-1.0156 0.7344-1.6875 0.75-0.67188 1.8906-0.67188 1.2031 0 1.8906 0.64063t0.6875 1.7812q0 0.5625-0.35938 1.0781-0.35936 0.51563-0.98436 0.78126 0.7031 0.21874 1.0781 0.73437 0.39064 0.51563 0.39064 1.2656 0 1.1406-0.75 1.8281-0.75 0.67188-1.9531 0.67188-1.1875 0-1.9531-0.65626-0.75-0.65624-0.75-1.7187h1.0937q0 0.67187 0.4375 1.0781t1.1875 0.40625q0.78126 0 1.1875-0.40625 0.42186-0.42188 0.42186-1.1875 0-0.73438-0.4531-1.125-0.45314-0.40625-1.3281-0.42188h-0.8125v-0.89062zm10.938-3.125-3.5313 7.9219h-1.1406l3.5156-7.6406h-4.6094v-0.89063h5.7656v0.60938zm1.625 7.3594q0-0.28126 0.15624-0.46876 0.1719-0.1875 0.5-0.1875 0.34376 0 0.51564 0.1875 0.17186 0.1875 0.17186 0.46876 0 0.26562-0.17186 0.45312-0.17188 0.17188-0.51564 0.17188-0.3281 0-0.5-0.17188-0.15624-0.1875-0.15624-0.45312zm3.3594-3.7188 0.4375-4.25h4.375v1h-3.4531l-0.2656 2.3281q0.6406-0.375 1.4375-0.375 1.1562 0 1.8437 0.78125 0.6875 0.76562 0.6875 2.0781t-0.71874 2.0781q-0.70314 0.76563-1.9844 0.76563-1.125 0-1.8437-0.625-0.71876-0.64063-0.8125-1.75h1.0156q0.10936 0.73437 0.53124 1.1094 0.42186 0.375 1.1094 0.375 0.75 0 1.1875-0.51563 0.4375-0.51562 0.4375-1.4219 0-0.85937-0.46874-1.375-0.46876-0.51563-1.25-0.51563-0.70312 0-1.1094 0.29688l-0.28126 0.23438-0.875-0.21876zm6.4063-2.6094q0-0.76563 0.48436-1.2656 0.5-0.5 1.2656-0.5 0.78124 0 1.2656 0.5 0.4844 0.5 0.4844 1.2969v0.42188q0 0.76562-0.5 1.2656-0.4844 0.48438-1.2344 0.48438-0.7656 0-1.2656-0.48438-0.5-0.5-0.5-1.3125v-0.40625zm0.8125 0.45313q0 0.45312 0.25 0.75 0.2656 0.29687 0.7031 0.29687 0.4219 0 0.6719-0.28125 0.25-0.29688 0.25-0.79688v-0.42187q0-0.45313-0.25-0.75-0.25-0.3125-0.6875-0.3125t-0.6875 0.3125q-0.25 0.29687-0.25 0.76563v0.4375zm3.3437 4.3437q0-0.76562 0.48436-1.25 0.5-0.5 1.2656-0.5 0.76562 0 1.25 0.5 0.5 0.48438 0.5 1.2969v0.40625q0 0.76563-0.48438 1.2656-0.48436 0.5-1.25 0.5-0.76562 0-1.2656-0.48438-0.5-0.5-0.5-1.3125v-0.42188zm0.8125 0.45313q0 0.46875 0.25 0.76563 0.26562 0.29687 0.70312 0.29687 0.42188 0 0.67188-0.28125 0.25-0.29688 0.25-0.79688v-0.4375q0-0.46874-0.26564-0.75-0.25-0.29687-0.67186-0.29687-0.42188 0-0.6875 0.29687-0.25 0.28126-0.25 0.78126v0.42187zm-2.9531 1-0.625-0.39063 4.1719-6.6719 0.60936 0.39063-4.1563 6.6719z" fill="#9e9e9e"/>
<path d="m573.7 301.91h-107-69.009" stroke="#757575" stroke-linecap="butt"/>
<path d="m399.69 301.91c0-1.1046-0.8954-2-2-2-1.1045 0-2 0.89541-2 2 0 1.1045 0.89546 2 2 2 1.1046 0 2-0.89546 2-2" fill="#9e9e9e"/>
</svg>
