<svg xmlns="http://www.w3.org/2000/svg" viewBox="0 0 344.71 54.43"><defs><style>.cls-1{fill:#231815;}</style></defs><title>logo</title><g id="レイヤー_2" data-name="レイヤー 2"><g id="レイヤー_1-2" data-name="レイヤー 1"><path class="cls-1" d="M29.66,36.49,37,45.35l8.59-19.83,8.75,3.89c.06-.72.1-1.46.1-2.2a27.25,27.25,0,1,0-.61,5.7l-3.19-1.42A23.81,23.81,0,1,1,10.78,10L43.59,24.63,36.28,38.2l-9.07-11-9.71,18h7.44ZM13.72,7.61A23.77,23.77,0,0,1,50.8,24.12Z"/><polygon class="cls-1" points="4.54 27.21 22.68 31.74 24.95 27.21 4.54 27.21"/><polygon class="cls-1" points="36.28 27.21 29.65 22.67 27.21 27.21 36.28 27.21"/><path class="cls-1" d="M194.25,41.19A4.9,4.9,0,0,1,189.09,36V10.26h-3.43V36c0,3,1.79,8.59,8.59,8.59,11.16,0,16.71-9,16.94-9.43l-2.94-1.77C208.05,33.75,203.42,41.19,194.25,41.19Z"/><path class="cls-1" d="M171.89,25.78c-2.89-2-7.13-2-12.61,0a22,22,0,0,0-7.48,4.81L153,17.29,149.61,17l-1.75,18.91,3.19,1a20.52,20.52,0,0,1,9.43-7.85c4.28-1.6,7.54-1.76,9.43-.47a5.39,5.39,0,0,1,2,4l0,.3A5.59,5.59,0,0,1,170.52,37c-1.6,1.89-5.34,4.15-14,4.15v3.44c8.05,0,13.65-1.81,16.67-5.38a9.15,9.15,0,0,0,2.19-6.78A8.74,8.74,0,0,0,171.89,25.78Z"/><rect class="cls-1" x="155.7" y="6.47" width="3.44" height="13.08" transform="translate(79.43 150.37) rotate(-65.14)"/><polygon class="cls-1" points="128.66 15.44 118.62 17.11 120.3 10.69 116.97 9.82 114.9 17.73 108.04 18.87 108.61 22.26 113.95 21.37 108.38 42.62 111.71 43.49 117.66 20.75 129.23 18.83 128.66 15.44"/><path class="cls-1" d="M121.24,36.28h0l-.88,1.47-.89,1.48a32.69,32.69,0,0,0,15.47,4,28.3,28.3,0,0,0,4.6-.37L139,39.5C129.46,41.08,121.34,36.34,121.24,36.28Z"/><path class="cls-1" d="M137.2,27.41l.68-3.37c-.38-.08-9.26-1.79-16.58,1.87L122.84,29C129.09,25.86,137.12,27.39,137.2,27.41Z"/><path class="cls-1" d="M224.84,38.43C219,31.14,221.69,14.16,221.72,14l-3.39-.57c-.14.89-3.49,21.7,5.78,29.12a1.71,1.71,0,0,0,1.07.38,1.63,1.63,0,0,0,.31,0,1.72,1.72,0,0,0,1.17-.81l5.15-8.59-2.94-1.77Z"/><path class="cls-1" d="M241.86,14.05l-2.09,2.73c.06,0,6.16,4.86,7.77,17.75L251,34.1C249.16,19.81,242.16,14.28,241.86,14.05Z"/><polygon class="cls-1" points="288.77 35.27 295.64 35.27 295.64 31.65 288.77 31.65 288.77 26.58 285.33 26.58 285.33 31.65 278.46 31.65 278.46 35.27 285.33 35.27 285.33 42.13 276.74 42.13 276.74 45.4 297.36 45.4 297.36 42.13 288.77 42.13 288.77 35.27"/><rect class="cls-1" x="272.44" y="32.49" width="3.44" height="7.09" transform="translate(-0.55 67.6) rotate(-14.04)"/><rect class="cls-1" x="256.9" y="36.03" width="10.45" height="3.44" transform="translate(181.83 290.12) rotate(-80.54)"/><path class="cls-1" d="M295.53,12.58l-1.6-2.32-17.38,0v3.43h2.08a34.53,34.53,0,0,0,5.82,8.51,16.34,16.34,0,0,1-7.91,3.56l-1.63-4.08-3.19,1.28L273,26.1l-5.83.66,1.41-2.25h0l6.19-9.9-2.92-1.83-4.37,7-2.34-1.56,5.09-8.35-2.94-1.78-5,8.23-.9-.61-1.91,2.86,6.19,4.13-1.57,2.52-1.28,2.05-3.44.39.38,3.42,6.69-.76v16h3.43V29.92l4.44-.51.84,2.11,3.19-1.28-.5-1.25A20.15,20.15,0,0,0,287,24.56a20.41,20.41,0,0,0,10.12,4.58l.48-3.4a16.9,16.9,0,0,1-8.07-3.6A32.62,32.62,0,0,0,295.53,12.58ZM287,19.8a31.39,31.39,0,0,1-4.46-6.13l8.72,0A30.06,30.06,0,0,1,287,19.8Z"/><rect class="cls-1" x="308.54" y="8.44" width="3.44" height="8.75" transform="translate(115.67 254.8) rotate(-53.56)"/><rect class="cls-1" x="307.07" y="17.27" width="3.44" height="8.32" transform="translate(100.65 250.53) rotate(-51.71)"/><rect class="cls-1" x="301.22" y="36.04" width="15.88" height="3.44" transform="translate(121.85 286.59) rotate(-59.99)"/><path class="cls-1" d="M332.64,22.78a19.59,19.59,0,0,0,5.19-6.4H343V12.94H331l0-4.86-3.44,0,0,4.83h-12.1v3.44h5.23a19.52,19.52,0,0,0,2.47,3.67,20.23,20.23,0,0,0,2.8,2.71,31.36,31.36,0,0,1-12.2,2.2v3.43a42.11,42.11,0,0,0,6.21-.45c-.12,3.44-1,13.85-6.89,15l.66,3.37c3.86-.75,6.19-3.58,7.59-6.84h14.26v6.88h3.44V28a41,41,0,0,0,5.66.39V25A30.53,30.53,0,0,1,332.64,22.78Zm-7.95-6.4h9.24a14.61,14.61,0,0,1-1.07,1.46A16.63,16.63,0,0,1,329.34,21,17.09,17.09,0,0,1,324.69,16.38ZM335.61,36H322.49c.22-.88.39-2.13.52-3h12.6Zm0-6.39H323.39c.05-.86.06-1.93.06-2.4A26.22,26.22,0,0,0,329.34,25a26.23,26.23,0,0,0,6.27,2.38Z"/><path class="cls-1" d="M90.8,23.37c.24-.9.37-1.47.39-1.58l-3.36-.72s-.17.78-.53,2a29.74,29.74,0,0,0-6.77.82c0-1.63,0-3.25,0-4.83l13.48-1.92-.48-3.4L80.82,15.53a64.06,64.06,0,0,1,.93-6.65L78.38,8.2a72.78,72.78,0,0,0-1,7.82l-7.9,1.13.48,3.4,7.2-1c-.07,1.72-.08,3.53,0,5.37A14.07,14.07,0,0,0,68,37.75c0,.39.08,3.84,2.63,5.41,1.74,1.08,4,.93,6.73-.43a18.43,18.43,0,0,0,4-2.8,12,12,0,0,0,2.83,2.69l1.91-2.86a8.76,8.76,0,0,1-2.32-2.34,37.24,37.24,0,0,0,5.89-10.76c5,.75,7.65,4.05,7.22,8.35-.34,3.35-4.11,5.21-8.68,6.22L89,44.59c5.81-1.29,9.46-3.71,10.85-7.18,1.73-4.3-.76-8.5-1.16-9.13S96.29,24.41,90.8,23.37ZM75.86,39.65c-1.55.77-2.75,1-3.39.59s-1-1.88-1-2.52a10.59,10.59,0,0,1,6-9.21,28.6,28.6,0,0,0,2.21,8.41A15.13,15.13,0,0,1,75.86,39.65ZM82.14,34a29.3,29.3,0,0,1-1.39-6.66,29.72,29.72,0,0,1,5.36-.83A34.35,34.35,0,0,1,82.14,34Z"/></g></g></svg>