<svg width="100%" height="100%" viewBox="0 0 176 162" version="1.1" xmlns="http://www.w3.org/2000/svg" xmlns:xlink="http://www.w3.org/1999/xlink">
    <g id="1" stroke="none" stroke-width="1" fill="none" fill-rule="evenodd">
        <g id="PC_SS" transform="translate(-96.000000, -85.000000)" fill-rule="nonzero">
            <g id="MV">
                <g id="logo" transform="translate(96.000000, 85.000000)">
                    <rect id="Rectangle" fill="#FFFFFF" x="0" y="0" width="176" height="162"></rect>
                    <path d="M164.3,149.13 L11.3,149.13 L11.3,128.75 L164.3,128.75 L164.3,149.13 Z M12.3,148.13 L163.3,148.13 L163.3,129.76 L12.3,129.76 L12.3,148.13 Z" id="Shape" fill="#0069B7"></path>
                    <path d="M33.46,144.34 L33.46,145.26 L31.91,145.26 L31.91,144.26 L25.59,144.26 L25.59,145.26 L24,145.26 C24,144.99 24,144.66 24,144.34 L24,134 C24,133.69 24,133.34 24,133.09 L33.48,133.09 C33.48,133.4 33.48,133.69 33.48,134 L33.46,144.34 Z M25.59,134.5 L25.59,137.83 L31.91,137.83 L31.91,134.5 L25.59,134.5 Z M31.91,142.85 L31.91,139.2 L25.59,139.2 L25.59,142.85 L31.91,142.85 Z" id="Shape" fill="#0069B7"></path>
                    <path d="M47.88,144.65 C47.863991,144.846341 47.863991,145.043659 47.88,145.24 L46.56,145.24 C46.576009,145.043659 46.576009,144.846341 46.56,144.65 L46.56,139.5 L44.88,139.66 L44.27,139.76 L44.14,138.38 C44.3997075,138.397442 44.6602925,138.397442 44.92,138.38 C45.0431719,138.388924 45.1668281,138.388924 45.29,138.38 C45.61,138.01 45.94,137.6 46.29,137.17 C45.6663324,136.42397 44.9984658,135.716032 44.29,135.05 L45.02,134.05 L45.56,134.59 C46.1033131,133.851509 46.5533833,133.048772 46.9,132.2 L48,133 L47.85,133.2 C47.416086,134.004221 46.9352561,134.782231 46.41,135.53 L46.99,136.19 C47.6055874,135.323727 48.1411259,134.40327 48.59,133.44 L49.72,134.22 L49.55,134.43 C48.7504796,135.788857 47.8548648,137.088835 46.87,138.32 C47.45,138.32 48.04,138.22 48.52,138.17 C48.3998029,137.799775 48.2527456,137.438816 48.08,137.09 L49.08,136.78 C49.5138808,137.695145 49.8491031,138.653881 50.08,139.64 L49,140 C48.95,139.77 48.89,139.52 48.84,139.26 L47.89,139.39 L47.88,144.65 Z M44.88,140.29 L46.07,140.53 C46.07,140.53 46.07,140.68 46.07,140.8 C46.0429877,142.0674 45.8307412,143.324034 45.44,144.53 L44.32,143.85 C44.6977974,142.701121 44.8902073,141.499403 44.89,140.29 L44.88,140.29 Z M50,143.34 L48.81,143.68 C48.7517241,142.60448 48.5943913,141.536625 48.34,140.49 L49.34,140.19 C49.6433883,141.220785 49.8640879,142.274124 50,143.34 L50,143.34 Z M57.57,143.64 L57.57,145 C57.2635609,144.983293 56.9564391,144.983293 56.65,145 L50.52,145 C50.2102197,144.983495 49.8997803,144.983495 49.59,145 L49.59,143.6 C49.8997803,143.616505 50.2102197,143.616505 50.52,143.6 L53.09,143.6 L53.09,141.6 L50.61,141.6 L50.61,140.25 C50.85,140.25 51.1,140.25 51.41,140.25 L53.09,140.25 L53.09,139.09 C53.0990091,138.933463 53.0990091,138.776537 53.09,138.62 C53.41,138.62 54.25,138.62 54.56,138.67 C54.550188,138.809828 54.550188,138.950172 54.56,139.09 L54.56,140.25 L56.27,140.25 C56.58,140.25 56.83,140.25 57.07,140.25 L57.07,141.6 L54.5,141.6 L54.5,143.6 L56.65,143.6 C56.9557241,143.62987 57.2628371,143.643222 57.57,143.64 L57.57,143.64 Z M52.78,136.89 C52.0724231,136.164334 51.5360102,135.289674 51.21,134.33 L51.05,134.33 C50.78,134.33 50.55,134.33 50.32,134.33 L50.32,133.04 L55.73,133.04 L55.88,132.88 C56.3176208,133.186262 56.7351448,133.520281 57.13,133.88 L56.94,133.98 C56.5332553,135.104575 55.8688572,136.118296 55,136.94 C55.8060316,137.340656 56.6756988,137.597834 57.57,137.7 C57.39,138.11 57.15,138.76 57.05,139.04 C55.9462392,138.825693 54.8896409,138.415922 53.93,137.83 C52.9573142,138.414944 51.8972229,138.840331 50.79,139.09 C50.69,138.8 50.39,138.09 50.2,137.71 C51.0941331,137.558738 51.9626065,137.282711 52.78,136.89 L52.78,136.89 Z M52.6,134.33 C52.9150091,135.056496 53.3942333,135.700026 54,136.21 C54.6182051,135.702427 55.1109823,135.059079 55.44,134.33 L52.6,134.33 Z" id="Shape" fill="#0069B7"></path>
                    <path d="M81,143.55 L81,144.9 C80.7,144.9 80.36,144.9 79.91,144.9 L72,144.9 C71.56,144.9 71.22,144.9 70.91,144.9 L70.91,143.55 C71.22,143.55 71.56,143.55 72,143.55 L75.35,143.55 L75.35,142.31 L72.59,142.31 L72.59,141.13 C72.85,141.13 73.11,141.13 73.44,141.13 L75.32,141.13 L75.32,140 L73.24,140 C72.8521953,140.749166 72.337979,141.425766 71.72,142 C71.4131715,141.641176 71.0788243,141.306829 70.72,141 C70.6520768,142.492538 70.200922,143.942433 69.41,145.21 C69.13,144.93 68.59,144.46 68.26,144.21 C68.96,143.21 69.44,141.52 69.44,138.97 L69.44,136.6 C69.4489152,136.456805 69.4489152,136.313195 69.44,136.17 L72.55,136.17 C72.3401318,135.771708 72.1098248,135.384525 71.86,135.01 L73.12,134.68 C73.4139489,135.15982 73.6777908,135.657446 73.91,136.17 L75.91,136.17 C76.2325335,135.700306 76.4820323,135.184451 76.65,134.64 L70.65,134.64 C70.19,134.64 69.82,134.64 69.5,134.64 L69.5,133.32 C69.82,133.32 70.19,133.32 70.65,133.32 L74.24,133.32 L74.24,132.6 C74.2479207,132.480131 74.2479207,132.359869 74.24,132.24 C74.56,132.24 75.4,132.24 75.7,132.3 C75.7,132.39 75.7,132.53 75.7,132.6 L75.7,133.32 L79.63,133.32 C80.09,133.32 80.43,133.32 80.75,133.32 L80.75,134.64 C80.43,134.64 80.09,134.64 79.63,134.64 L76.83,134.64 L77.96,135.04 C77.9088422,135.101241 77.8651984,135.168385 77.83,135.24 C77.6795493,135.558449 77.5126578,135.868867 77.33,136.17 L79.7,136.17 C80.16,136.17 80.5,136.17 80.82,136.17 L80.82,137.49 C80.5,137.49 80.16,137.49 79.7,137.49 L70.81,137.49 L70.81,139 C70.8146505,139.668024 70.7812632,140.335771 70.71,141 C71.7013748,140.141115 72.40045,138.994632 72.71,137.72 L74.06,138.11 L73.98,138.28 L73.81,138.82 L75.33,138.82 L75.33,138.25 C75.33,138.15 75.33,137.89 75.33,137.77 C75.63,137.77 76.45,137.77 76.74,137.82 C76.7297441,137.966487 76.7297441,138.113513 76.74,138.26 L76.74,138.82 L80.2,138.82 L80.2,140 C79.94,140 79.67,140 79.34,140 L76.74,140 L76.74,141.18 L79,141.18 C79.33,141.18 79.59,141.18 79.85,141.18 L79.85,142.36 L76.65,142.36 L76.65,143.6 L79.92,143.6 C80.39,143.58 80.73,143.58 81,143.55 Z" id="Path" fill="#0069B7"></path>
                    <path d="M104.34,145 C102.362517,144.571171 100.52558,143.649263 99,142.32 C99,143.18 99,144.63 99,144.8 C98.9844239,144.952938 98.9844239,145.107062 99,145.26 L97.67,145.26 C97.6855761,145.107062 97.6855761,144.952938 97.67,144.8 C97.67,144.63 97.67,143.25 97.67,142.38 C96.1367576,143.64057 94.3333018,144.53032 92.4,144.98 C92.1740652,144.544072 91.9202032,144.123195 91.64,143.72 C93.3752458,143.458185 95.0351567,142.831032 96.51,141.88 L93.25,141.88 C92.73,141.88 92.34,141.88 91.99,141.88 L91.99,140.66 C92.34,140.66 92.73,140.66 93.25,140.66 L97.71,140.66 L97.71,139.82 L94.54,139.82 C94.14,139.82 93.82,139.82 93.54,139.82 L93.54,138.67 C93.84,138.67 94.16,138.67 94.54,138.67 L97.71,138.67 L97.71,138 L94,138 C93.56,138 93.2,138 92.88,138 L92.88,136.8 C93.2,136.8 93.56,136.8 94,136.8 L95.77,136.8 C95.55,136.43 95.32,136.07 95.14,135.8 L96.42,135.37 L93.42,135.37 C92.92,135.37 92.54,135.37 92.2,135.37 L92.2,134.17 C92.54,134.17 92.92,134.17 93.42,134.17 L94.33,134.17 C93.99,133.68 93.59,133.17 93.33,132.82 L94.63,132.41 C94.96,132.82 95.46,133.6 95.82,134.17 L96.48,134.17 L96.48,132.54 C96.4876716,132.413449 96.4876716,132.286551 96.48,132.16 C96.77,132.16 97.56,132.16 97.83,132.22 C97.83,132.31 97.83,132.46 97.83,132.55 L97.83,134.17 L99.15,134.17 L99.15,132.54 C99.1576716,132.413449 99.1576716,132.286551 99.15,132.16 C99.44,132.16 100.23,132.16 100.5,132.22 C100.5,132.31 100.5,132.46 100.5,132.55 L100.5,134.17 L101.24,134.17 C101.687978,133.61256 102.06425,133.001119 102.36,132.35 L103.62,132.87 L103.51,133.02 C103.3,133.37 103.02,133.77 102.73,134.17 L103.52,134.17 C104.02,134.17 104.39,134.17 104.74,134.17 L104.74,135.37 C104.39,135.37 104.02,135.37 103.52,135.37 L100.52,135.37 L101.82,135.8 C101.776194,135.846025 101.742175,135.900455 101.72,135.96 C101.6,136.19 101.43,136.49 101.24,136.8 L103.01,136.8 C103.47,136.8 103.81,136.8 104.13,136.8 L104.13,138 C103.81,138 103.47,138 103.01,138 L99,138 L99,138.73 L102.3,138.73 C102.71,138.73 103.01,138.73 103.3,138.73 L103.3,139.88 C102.99,139.88 102.69,139.88 102.3,139.88 L99,139.88 L99,140.72 L103.54,140.72 C104.06,140.72 104.45,140.72 104.81,140.72 L104.81,141.94 C104.45,141.94 104.06,141.94 103.54,141.94 L100.1,141.94 C101.61437,142.90694 103.320088,143.534644 105.1,143.78 C104.824942,144.172724 104.571241,144.579981 104.34,145 L104.34,145 Z M97.25,136.89 L99.64,136.89 C99.9198988,136.437572 100.154373,135.958575 100.34,135.46 L96.49,135.46 C96.69,135.79 97,136.39 97.25,136.89 Z" id="Shape" fill="#0069B7"></path>
                    <path d="M120,141.44 C120,142.79 120.05,144.44 120.05,144.69 C120.039538,144.87652 120.039538,145.06348 120.05,145.25 L118.65,145.25 C118.666062,145.063679 118.666062,144.876321 118.65,144.69 L118.65,141.69 C118.091594,142.69392 117.332508,143.572145 116.42,144.27 C116.23,143.91 115.92,143.34 115.73,143.01 C116.757501,142.364062 117.620322,141.487545 118.25,140.45 L116.04,140.45 L116.04,139.22 L118.64,139.22 L118.64,138.46 C118.645914,138.346744 118.645914,138.233256 118.64,138.12 C118.95,138.12 119.73,138.12 120.02,138.18 C120.02,138.26 120.02,138.41 120.02,138.48 L120.02,139.22 L122.61,139.22 L122.61,140.45 L120.35,140.45 C120.95728,141.140492 121.694656,141.704568 122.52,142.11 C122.36,142.44 122.12,142.99 121.99,143.29 C121.217744,142.801995 120.542945,142.174669 120,141.44 Z M116.84,138 C116.52,138 116.26,138 116.02,138 L116.02,136.74 L117.67,136.74 C117.52467,136.183415 117.313162,135.646251 117.04,135.14 L118.2,134.82 C118.424665,135.346107 118.6118,135.887461 118.76,136.44 L117.76,136.74 L119.76,136.74 C120.025279,136.095523 120.223003,135.425271 120.35,134.74 L121.58,135.16 C121.53709,135.215954 121.500218,135.27629 121.47,135.34 C121.335514,135.815602 121.165021,136.280278 120.96,136.73 L122.67,136.73 L122.67,138 C122.43,138 122.17,138 121.87,138 L116.84,138 Z M116.94,134.75 C116.65,134.75 116.38,134.75 116.13,134.75 L116.13,133.55 L118.66,133.55 L118.66,132.63 C118.667921,132.510131 118.667921,132.389869 118.66,132.27 C118.98,132.27 119.81,132.27 120.09,132.33 C120.09,132.42 120.09,132.56 120.09,132.65 L120.09,133.55 L122.54,133.55 L122.54,134.75 C122.3,134.75 122.08,134.75 121.78,134.75 L116.94,134.75 Z M129.07,136.75 L129.07,138.06 L127.59,138.06 L127.59,144.6 C127.59,144.83 127.59,145.06 127.59,145.26 L126.18,145.26 C126.18,145.07 126.18,144.82 126.18,144.6 L126.18,138.06 L124.76,138.06 C124.76,141.34 124.04,143.84 122.89,145.17 C122.53374,144.789237 122.156486,144.428675 121.76,144.09 C122.92,142.76 123.41,140.56 123.41,137.76 L123.41,134.24 C123.41,134.15 123.41,133.48 123.41,133.35 C123.56,133.42 123.89,133.56 124.21,133.72 C125.552584,133.439577 126.851037,132.978727 128.07,132.35 L128.87,133.52 L128.6,133.61 C127.361119,134.137174 126.079891,134.558675 124.77,134.87 L124.77,136.77 L129.02,136.77 L129.07,136.75 Z" id="Shape" fill="#0069B7"></path>
                    <path d="M141.22,144.39 C141.22,144.69 141.22,145 141.22,145.28 L139.73,145.28 C139.73,145 139.73,144.69 139.73,144.39 L139.73,133.24 C139.73896,133.090134 139.73896,132.939866 139.73,132.79 L145.07,132.79 C145.07,132.95 145.07,133.11 145.07,133.29 L145.07,137.88 L141.2,137.88 L141.22,144.39 Z M141.22,133.97 L141.22,134.77 L143.7,134.77 L143.7,134 L141.22,133.97 Z M143.7,136.7 L143.7,135.83 L141.22,135.83 L141.22,136.7 L143.7,136.7 Z M148.15,144.7 C148.134546,144.896363 148.134546,145.093637 148.15,145.29 L146.8,145.29 C146.815454,145.093637 146.815454,144.896363 146.8,144.7 L146.8,144 C145.68,144.11 143.61,144.31 142.74,144.37 L142.1,144.46 L141.89,143.24 L143.17,143.24 L143.17,139.76 L142.17,139.76 L142.17,138.64 C142.41,138.64 142.67,138.64 142.97,138.64 L148.31,138.64 C148.63,138.64 148.87,138.64 149.12,138.64 L149.12,139.76 L148.12,139.76 L148.15,144.7 Z M144.52,139.7 L144.52,140.3 L146.86,140.3 L146.86,139.7 L144.52,139.7 Z M144.52,141.7 L146.86,141.7 L146.86,141.17 L144.52,141.17 L144.52,141.7 Z M146.86,143 L146.86,142.53 L144.52,142.53 L144.52,143.16 L146.86,143 Z M151.6,142.64 C151.6,142.86 151.6,143.64 151.6,143.74 C151.6,144.62 150.86,145.15 148.96,145.15 C148.82,144.82 148.49,144.15 148.28,143.67 C148.630945,143.723485 148.985061,143.753552 149.34,143.76 C149.95,143.76 150.13,143.62 150.13,143.35 L150.13,137.88 L146.26,137.88 C146.26,137.73 146.26,137.56 146.26,137.39 L146.26,133.29 C146.26,133.11 146.26,132.94 146.26,132.79 L151.6,132.79 C151.6,133.05 151.6,133.29 151.6,133.55 L151.6,142.64 Z M147.69,134 L147.69,134.8 L150.16,134.8 L150.16,134 L147.69,134 Z M150.16,136.73 L150.16,135.86 L147.69,135.86 L147.69,136.73 L150.16,136.73 Z" id="Shape" fill="#0069B7"></path>
                    <polygon id="Path" fill="#0069B7" points="37.18 48 18 26.24 18 48 11.73 48 11.73 14.09 15.44 14.09 34.44 35.66 34.44 14.09 40.7 14.09 40.7 48"></polygon>
                    <polygon id="Path" fill="#0069B7" points="49.05 14.09 56.32 14.09 56.32 48 49.05 48"></polygon>
                    <polygon id="Path" fill="#0069B7" points="75.28 32.78 71.71 37.06 71.71 48 64.63 48 64.63 14.09 71.71 14.09 71.71 29.09 84.43 14.09 91.56 14.09 91.56 14.38 80.33 27.69 92.33 47.69 92.33 48 84.57 48"></polygon>
                    <polygon id="Path" fill="#0069B7" points="106.92 32.78 103.35 37.06 103.35 48 96.27 48 96.27 14.09 103.35 14.09 103.35 29.09 116.07 14.09 123.2 14.09 123.2 14.38 112 27.69 124 47.69 124 48 116.24 48"></polygon>
                    <polygon id="Path" fill="#0069B7" points="128.37 14.09 149 14.09 149 19.47 135.36 19.47 135.36 27.88 147.21 27.88 147.21 33.16 135.36 33.16 135.36 42.58 149.18 42.58 149.18 48 128.37 48"></polygon>
                    <polygon id="Path" fill="#0069B7" points="156.54 14.09 163.82 14.09 163.82 48 156.54 48"></polygon>
                    <path d="M11.73,51.78 L23.73,51.78 C30.86,51.78 34.99,54.45 34.99,60.25 C35.1889646,63.497468 32.9453958,66.3875614 29.75,67 C34.68,68.17 36.75,71.39 36.75,75.19 C36.75,81.19 32.75,84.73 24.69,84.73 L11.69,84.73 L11.73,51.78 Z M18.54,56.93 L18.54,65.17 L23.61,65.17 C26.99,65.17 28.44,63.81 28.44,61 C28.44,58.19 26.75,56.93 23.37,56.93 L18.54,56.93 Z M18.54,69.98 L18.54,79.58 L23.75,79.58 C27.97,79.58 29.85,78.31 29.85,74.8 C29.85,71.29 27.92,70 23.75,70 L18.54,69.98 Z" id="Shape" fill="#00408C"></path>
                    <path d="M41.69,77.36 L41.69,65.91 L46.92,65.91 L46.92,77.28 C46.92,79.78 48.11,81.04 50.32,81.04 C52.53,81.04 53.74,79.78 53.74,77.28 L53.74,65.91 L58.35,65.91 L58.35,77.36 C58.35,82.2 55.49,85.18 50.1,85.18 C44.71,85.18 41.69,82.47 41.69,77.36 Z" id="Path" fill="#00408C"></path>
                    <polygon id="Path" fill="#00408C" points="82 65.56 87.39 65.56 87.39 84.71 82 84.71"></polygon>
                    <polygon id="Path" fill="#00408C" points="106.6 84.73 97.14 73.93 97.14 84.75 92.69 84.75 92.69 65.38 95.79 65.38 105.14 76.05 105.14 65.35 109.59 65.35 109.59 84.73"></polygon>
                    <polygon id="Path" fill="#00408C" points="114.87 65.3 127.27 65.3 127.27 69 120 69 120 72.8 126.2 72.8 126.2 76.5 120 76.5 120 81 127.39 81 127.39 84.74 114.87 84.74"></polygon>
                    <path d="M63.74,83.68 L63.74,79.4 L63.9,79.32 C65.4384703,80.4318191 67.2820286,81.042847 69.18,81.07 C70.96,81.07 71.83,80.37 71.83,79.27 C71.83,78.17 71.18,78 69.4,77.36 L68.11,77 C65.22,76.11 63.63,74.34 63.63,71.36 C63.63,67.57 66.3,65.36 70.42,65.36 C72.1758501,65.2760533 73.9258661,65.6191937 75.52,66.36 L75.52,70.5 L75.36,70.58 C73.9272922,69.7169842 72.282441,69.2702772 70.61,69.29 C69.02,69.29 68.27,69.94 68.27,70.83 C68.27,71.72 68.75,72.2 70.27,72.68 L71.51,73.06 C75.23,74.06 76.74,75.61 76.74,78.84 C76.74,82.84 74.07,85.02 69.49,85.02 C67.4884511,85.090788 65.5040487,84.628336 63.74,83.68 Z" id="Path" fill="#00408C"></path>
                    <path d="M132.8,83.68 L132.8,79.4 L132.96,79.32 C134.49847,80.4318191 136.342029,81.042847 138.24,81.07 C140.02,81.07 140.89,80.37 140.89,79.27 C140.89,78.17 140.24,77.95 138.46,77.36 L137.16,76.98 C134.28,76.09 132.69,74.32 132.69,71.34 C132.69,67.55 135.36,65.34 139.48,65.34 C141.23585,65.2560533 142.985866,65.5991937 144.58,66.34 L144.58,70.5 L144.42,70.58 C142.987292,69.7169842 141.342441,69.2702772 139.67,69.29 C138.08,69.29 137.32,69.94 137.32,70.83 C137.32,71.72 137.81,72.2 139.32,72.68 L140.56,73.06 C144.28,74.06 145.79,75.61 145.79,78.84 C145.79,82.84 143.12,85.02 138.54,85.02 C136.541672,85.0904496 134.56058,84.6279646 132.8,83.68 Z" id="Path" fill="#00408C"></path>
                    <path d="M150.77,83.68 L150.77,79.4 L150.93,79.32 C152.46847,80.4318191 154.312029,81.042847 156.21,81.07 C157.99,81.07 158.86,80.37 158.86,79.27 C158.86,78.17 158.21,77.95 156.43,77.36 L155.14,77 C152.25,76.11 150.66,74.34 150.66,71.36 C150.66,67.57 153.33,65.36 157.45,65.36 C159.20585,65.2760533 160.955866,65.6191937 162.55,66.36 L162.55,70.5 L162.39,70.58 C160.957292,69.7169842 159.312441,69.2702772 157.64,69.29 C156.05,69.29 155.3,69.94 155.3,70.83 C155.3,71.72 155.78,72.2 157.3,72.68 L158.54,73.06 C162.26,74.06 163.77,75.61 163.77,78.84 C163.77,82.84 161.1,85.02 156.52,85.02 C154.518311,85.0922371 152.533534,84.6296978 150.77,83.68 L150.77,83.68 Z" id="Path" fill="#00408C"></path>
                    <path d="M11.73,89 L21.8,89 C31.29,89 38.39,94 38.39,105.7 C38.39,117.4 31.29,122 21.8,122 L11.73,122 L11.73,89 Z M18.59,94.28 L18.59,116.7 L21.43,116.7 C27.86,116.7 32.2,114.22 32.2,105.7 C32.2,97.37 27.86,94.28 21.43,94.28 L18.59,94.28 Z" id="Shape" fill="#00408C"></path>
                    <path d="M51.17,118.9 L44.75,118.9 L43.56,122 L38.48,122 L38.48,121.79 L46.48,103.04 L49.31,103.04 L57.31,121.79 L57.31,122 L52.31,122 L51.17,118.9 Z M48,110.49 L46.06,115.49 L49.91,115.49 L48,110.49 Z" id="Shape" fill="#00408C"></path>
                    <polygon id="Path" fill="#00408C" points="61.2 103 66.41 103 66.41 122 61.2 122"></polygon>
                    <polygon id="Path" fill="#00408C" points="73.7 103 78.9 103 78.9 118 85.67 118 85.67 122 73.67 122"></polygon>
                    <polygon id="Path" fill="#00408C" points="91.94 122 91.94 114.53 86 103.25 86 103 91.34 103 94.84 110.39 98.33 103 103 103 103 103.21 97.15 114.32 97.15 122"></polygon>
                </g>
            </g>
        </g>
    </g>
</svg>
