<svg xmlns="http://www.w3.org/2000/svg" width="114.385" height="22" viewBox="0 0 114.385 22">
  <g id="グループ_47" data-name="グループ 47" transform="translate(-93 -22)">
    <g id="グループ_12" data-name="グループ 12" transform="translate(88.381 23.705)">
      <path id="パス_4" data-name="パス 4" d="M110.5,264.711a.254.254,0,0,1,.269-.269h6.812c3.876,0,5.708,1.939,5.708,4.873a4.078,4.078,0,0,1-2.127,3.877v.054a4.321,4.321,0,0,1,2.449,4.119c0,3.634-2.288,5.384-6.3,5.384h-6.543a.255.255,0,0,1-.269-.27Zm7,7.351a2.418,2.418,0,1,0,0-4.82h-3.66a.143.143,0,0,0-.162.162v4.5a.143.143,0,0,0,.162.162Zm-3.66,7.888h3.822a2.554,2.554,0,1,0,0-5.089h-3.822a.143.143,0,0,0-.162.161v4.766A.143.143,0,0,0,113.838,279.95Z" transform="translate(-78.88 -264.146)" fill="#e6641e"/>
      <path id="パス_5" data-name="パス 5" d="M142.088,282.749a.382.382,0,0,1-.4-.27l-3.5-7.134h-3.15a.143.143,0,0,0-.161.162v6.972a.254.254,0,0,1-.269.27h-2.639a.255.255,0,0,1-.269-.27V264.711a.254.254,0,0,1,.269-.269h7.08c3.366,0,5.842,2.235,5.842,5.465a5.207,5.207,0,0,1-3.473,5.034l3.85,7.458a.216.216,0,0,1-.189.349Zm-.35-12.841a2.555,2.555,0,0,0-2.8-2.612h-3.9a.143.143,0,0,0-.161.162v4.873a.142.142,0,0,0,.161.161h3.9A2.549,2.549,0,0,0,141.738,269.907Z" transform="translate(-83.362 -264.146)" fill="#e6641e"/>
      <path id="パス_6" data-name="パス 6" d="M153.182,264.711a.254.254,0,0,1,.27-.269h2.638a.254.254,0,0,1,.269.269v17.768a.254.254,0,0,1-.269.27h-2.638a.255.255,0,0,1-.27-.27Z" transform="translate(-87.905 -264.146)" fill="#e6641e"/>
      <path id="パス_7" data-name="パス 7" d="M162.632,264.711a.254.254,0,0,1,.269-.269h6.543c3.15,0,5.25,1.4,6.111,4.066.3.915.457,1.911.457,5.088s-.162,4.173-.457,5.088c-.861,2.666-2.961,4.065-6.111,4.065H162.9a.255.255,0,0,1-.269-.27ZM165.97,279.9h2.72c2.019,0,3.257-.673,3.8-2.314a12.553,12.553,0,0,0,.324-3.985,12.405,12.405,0,0,0-.324-3.984c-.538-1.643-1.776-2.317-3.8-2.317h-2.72a.144.144,0,0,0-.162.162v12.277A.143.143,0,0,0,165.97,279.9Z" transform="translate(-89.903 -264.146)" fill="#e6641e"/>
      <path id="パス_8" data-name="パス 8" d="M183.747,273.516c0-2.88.107-3.9.484-5.034.942-2.907,3.312-4.415,6.542-4.415,3.419,0,5.627,1.83,6.38,3.876a.3.3,0,0,1-.107.377l-2.261,1a.282.282,0,0,1-.35-.135,3.9,3.9,0,0,0-3.689-2.262,3.326,3.326,0,0,0-3.446,2.4,27.438,27.438,0,0,0,0,8.4,3.326,3.326,0,0,0,3.446,2.4,3.449,3.449,0,0,0,3.473-2.288,7.553,7.553,0,0,0,.3-2.37.142.142,0,0,0-.162-.161h-3.015a.254.254,0,0,1-.269-.269V272.87a.253.253,0,0,1,.269-.269H197.4a.253.253,0,0,1,.268.269v1.588a15.024,15.024,0,0,1-.431,4.011,6.363,6.363,0,0,1-6.461,4.5c-3.23,0-5.6-1.508-6.542-4.416C183.854,277.42,183.747,276.4,183.747,273.516Z" transform="translate(-94.368 -264.067)" fill="#e6641e"/>
      <path id="パス_9" data-name="パス 9" d="M206.09,264.711a.254.254,0,0,1,.269-.269h11.469a.254.254,0,0,1,.269.269v2.316a.253.253,0,0,1-.269.268h-8.4a.144.144,0,0,0-.162.162v4.47a.142.142,0,0,0,.162.161h7.08a.255.255,0,0,1,.27.27v2.315a.254.254,0,0,1-.27.269h-7.08a.143.143,0,0,0-.162.162v4.63a.142.142,0,0,0,.162.161h8.4a.254.254,0,0,1,.269.27v2.314a.254.254,0,0,1-.269.27H206.359a.255.255,0,0,1-.269-.27Z" transform="translate(-99.093 -264.146)" fill="#e6641e"/>
    </g>
    <circle id="楕円形_1" data-name="楕円形 1" cx="11" cy="11" r="11" transform="translate(93 22)" fill="#e6641e"/>
    <g id="グループ_42" data-name="グループ 42" transform="translate(95.473 29.887)">
      <g id="グループ_3" data-name="グループ 3" transform="translate(0 0)">
        <path id="パス_10" data-name="パス 10" d="M72.583,207.953H65.892a.215.215,0,0,1-.186-.323l3.345-5.8a.215.215,0,0,1,.372,0l3.346,5.8a.215.215,0,0,1-.186.323Zm-6.319-.43H72.21l-2.973-5.15Z" transform="translate(-62.387 -201.728)" fill="#fff" stroke="#fff" stroke-width="0.3"/>
        <path id="パス_11" data-name="パス 11" d="M99.4,207.953h0a.215.215,0,0,1-.186-.108l-3.345-5.8a.215.215,0,0,1,.186-.323h6.692a.215.215,0,0,1,.186.323l-3.347,5.8A.215.215,0,0,1,99.4,207.953Zm-2.973-5.8,2.973,5.15,2.974-5.15Z" transform="translate(-89.207 -201.728)" fill="#fff" stroke="#fff" stroke-width="0.3"/>
        <path id="パス_12" data-name="パス 12" d="M133.028,207.953h-6.691a.215.215,0,0,1-.186-.323l3.345-5.8a.215.215,0,0,1,.373,0l3.345,5.8a.215.215,0,0,1-.186.323Zm-6.318-.43h5.946l-2.973-5.15Z" transform="translate(-116.127 -201.728)" fill="#fff" stroke="#fff" stroke-width="0.3"/>
        <path id="パス_13" data-name="パス 13" d="M42.93,207.953H36.239a.215.215,0,0,1-.186-.323l3.346-5.8a.215.215,0,0,1,.372,0l3.346,5.8a.215.215,0,0,1-.186.323Zm-6.319-.43h5.946l-2.973-5.15Z" transform="translate(-36.023 -201.728)" fill="#fff" stroke="#fff" stroke-width="0.3"/>
        <path id="パス_14" data-name="パス 14" d="M69.749,207.953a.215.215,0,0,1-.186-.108l-3.346-5.8a.215.215,0,0,1,.186-.323h6.692a.215.215,0,0,1,.186.323l-3.346,5.8A.215.215,0,0,1,69.749,207.953Zm-2.974-5.8,2.974,5.15,2.973-5.15Z" transform="translate(-62.841 -201.728)" fill="#fff" stroke="#fff" stroke-width="0.3"/>
        <path id="パス_15" data-name="パス 15" d="M103.3,207.953H96.609a.215.215,0,0,1-.186-.323l3.346-5.8a.215.215,0,0,1,.186-.108h0a.215.215,0,0,1,.186.108l3.345,5.8a.215.215,0,0,1-.186.323Zm-6.319-.43h5.947l-2.973-5.15Z" transform="translate(-89.696 -201.728)" fill="#fff" stroke="#fff" stroke-width="0.3"/>
      </g>
    </g>
  </g>
</svg>
